<svg width="216" height="216" viewBox="0 0 216 216" fill="none" xmlns="http://www.w3.org/2000/svg">
<path d="M17.905 154.727C18.5233 154.108 18.5233 153.106 17.905 152.488C17.2867 151.87 16.2844 151.87 15.6661 152.488C15.0478 153.106 15.0478 154.108 15.6661 154.727C16.2844 155.345 17.2867 155.345 17.905 154.727Z" fill="#DBC5FF"/>
<path d="M33.3216 170.143C34.0582 169.407 34.0582 168.213 33.3216 167.476C32.5851 166.739 31.3909 166.739 30.6543 167.476C29.9177 168.213 29.9177 169.407 30.6543 170.143C31.3909 170.88 32.5851 170.88 33.3216 170.143Z" fill="#DBC5FF"/>
<path d="M48.524 185.346C49.2606 184.609 49.2606 183.415 48.524 182.678C47.7875 181.942 46.5933 181.942 45.8567 182.678C45.1201 183.415 45.1201 184.609 45.8567 185.346C46.5933 186.082 47.7875 186.082 48.524 185.346Z" fill="#DBC5FF"/>
<path d="M63.5122 200.334C64.1305 199.716 64.1305 198.713 63.5122 198.095C62.894 197.477 61.8916 197.477 61.2733 198.095C60.6551 198.713 60.6551 199.716 61.2733 200.334C61.8916 200.952 62.894 200.952 63.5122 200.334Z" fill="#DBC5FF"/>
<path d="M2.70259 109.119C3.32085 108.501 3.32085 107.499 2.70259 106.881C2.08434 106.262 1.08195 106.262 0.463691 106.881C-0.154564 107.499 -0.154564 108.501 0.463691 109.119C1.08195 109.738 2.08434 109.738 2.70259 109.119Z" fill="#DBC5FF"/>
<path d="M18.3334 124.75C19.1883 123.895 19.1883 122.509 18.3334 121.655C17.4786 120.8 16.0925 120.8 15.2377 121.655C14.3828 122.509 14.3828 123.895 15.2377 124.75C16.0925 125.605 17.4786 125.605 18.3334 124.75Z" fill="#DBC5FF"/>
<path d="M33.9574 140.374C35.045 139.287 35.045 137.523 33.9574 136.435C32.8697 135.348 31.1062 135.348 30.0186 136.435C28.9309 137.523 28.9309 139.287 30.0186 140.374C31.1062 141.462 32.8697 141.462 33.9574 140.374Z" fill="#DBC5FF"/>
<path d="M49.5813 155.998C50.9018 154.678 50.9018 152.537 49.5813 151.216C48.2608 149.896 46.1199 149.896 44.7994 151.216C43.479 152.537 43.479 154.678 44.7994 155.998C46.1199 157.319 48.2608 157.319 49.5813 155.998Z" fill="#DBC5FF"/>
<path d="M64.7837 171.201C66.1042 169.88 66.1042 167.739 64.7837 166.419C63.4632 165.098 61.3223 165.098 60.0019 166.419C58.6814 167.739 58.6814 169.88 60.0019 171.201C61.3223 172.521 63.4632 172.521 64.7837 171.201Z" fill="#DBC5FF"/>
<path d="M79.5646 185.981C80.6523 184.894 80.6523 183.13 79.5646 182.043C78.4769 180.955 76.7134 180.955 75.6258 182.043C74.5381 183.13 74.5381 184.894 75.6258 185.981C76.7134 187.069 78.4769 187.069 79.5646 185.981Z" fill="#DBC5FF"/>
<path d="M94.3455 200.762C95.2004 199.907 95.2004 198.521 94.3455 197.667C93.4906 196.812 92.1046 196.812 91.2497 197.667C90.3948 198.521 90.3949 199.907 91.2497 200.762C92.1046 201.617 93.4906 201.617 94.3455 200.762Z" fill="#DBC5FF"/>
<path d="M109.119 215.536C109.738 214.918 109.738 213.916 109.119 213.297C108.501 212.679 107.499 212.679 106.881 213.297C106.262 213.916 106.262 214.918 106.881 215.536C107.499 216.155 108.501 216.155 109.119 215.536Z" fill="#DBC5FF"/>
<path d="M18.3334 94.3455C19.1883 93.4906 19.1883 92.1046 18.3334 91.2497C17.4786 90.3948 16.0925 90.3948 15.2377 91.2497C14.3828 92.1046 14.3828 93.4906 15.2377 94.3455C16.0925 95.2003 17.4786 95.2003 18.3334 94.3455Z" fill="#DBC5FF"/>
<path d="M34.1647 110.177C35.3668 108.975 35.3668 107.025 34.1647 105.823C32.9625 104.621 31.0134 104.621 29.8113 105.823C28.6091 107.025 28.6091 108.975 29.8113 110.177C31.0134 111.379 32.9625 111.379 34.1647 110.177Z" fill="#DBC5FF"/>
<path d="M50.0028 126.015C51.5561 124.462 51.5561 121.943 50.0028 120.39C48.4495 118.837 45.9312 118.837 44.3779 120.39C42.8247 121.943 42.8247 124.462 44.3779 126.015C45.9312 127.568 48.4495 127.568 50.0028 126.015Z" fill="#DBC5FF"/>
<path d="M65.841 141.853C67.7453 139.949 67.7453 136.861 65.841 134.957C63.9366 133.052 60.849 133.052 58.9446 134.957C57.0402 136.861 57.0402 139.949 58.9446 141.853C60.849 143.757 63.9366 143.757 65.841 141.853Z" fill="#DBC5FF"/>
<path d="M81.0434 157.055C82.9478 155.151 82.9478 152.063 81.0434 150.159C79.139 148.255 76.0514 148.255 74.147 150.159C72.2426 152.063 72.2426 155.151 74.147 157.055C76.0514 158.96 79.139 158.96 81.0434 157.055Z" fill="#DBC5FF"/>
<path d="M95.61 171.622C97.1633 170.069 97.1633 167.55 95.61 165.997C94.0568 164.444 91.5384 164.444 89.9851 165.997C88.4319 167.55 88.4319 170.069 89.9851 171.622C91.5384 173.175 94.0568 173.175 95.61 171.622Z" fill="#DBC5FF"/>
<path d="M110.177 186.189C111.379 184.987 111.379 183.037 110.177 181.835C108.975 180.633 107.025 180.633 105.823 181.835C104.621 183.037 104.621 184.987 105.823 186.189C107.025 187.391 108.975 187.391 110.177 186.189Z" fill="#DBC5FF"/>
<path d="M124.75 200.762C125.605 199.907 125.605 198.521 124.75 197.667C123.895 196.812 122.509 196.812 121.655 197.667C120.8 198.521 120.8 199.907 121.655 200.762C122.509 201.617 123.895 201.617 124.75 200.762Z" fill="#DBC5FF"/>
<path d="M17.905 63.5122C18.5233 62.894 18.5233 61.8916 17.905 61.2733C17.2867 60.6551 16.2844 60.6551 15.6661 61.2733C15.0478 61.8916 15.0478 62.894 15.6661 63.5122C16.2844 64.1305 17.2867 64.1305 17.905 63.5122Z" fill="#DBC5FF"/>
<path d="M33.9574 79.5646C35.045 78.4769 35.045 76.7134 33.9574 75.6258C32.8697 74.5381 31.1062 74.5381 30.0186 75.6258C28.9309 76.7134 28.9309 78.4769 30.0186 79.5646C31.1062 80.6523 32.8697 80.6523 33.9574 79.5646Z" fill="#DBC5FF"/>
<path d="M50.0028 95.61C51.5561 94.0568 51.5561 91.5384 50.0028 89.9851C48.4495 88.4319 45.9312 88.4319 44.3779 89.9851C42.8247 91.5384 42.8247 94.0568 44.3779 95.61C45.9312 97.1633 48.4495 97.1633 50.0028 95.61Z" fill="#DBC5FF"/>
<path d="M66.0552 111.662C68.0779 109.64 68.0779 106.36 66.0552 104.338C64.0325 102.315 60.7531 102.315 58.7304 104.338C56.7077 106.36 56.7077 109.64 58.7304 111.662C60.7531 113.685 64.0325 113.685 66.0552 111.662Z" fill="#DBC5FF"/>
<path d="M82.1006 127.708C84.5889 125.22 84.5889 121.185 82.1006 118.697C79.6123 116.209 75.578 116.209 73.0898 118.697C70.6015 121.185 70.6015 125.22 73.0898 127.708C75.578 130.196 79.6123 130.196 82.1006 127.708Z" fill="#DBC5FF"/>
<path d="M97.303 142.91C99.7913 140.422 99.7913 136.388 97.303 133.899C94.8148 131.411 90.7804 131.411 88.2922 133.899C85.8039 136.388 85.8039 140.422 88.2922 142.91C90.7804 145.399 94.8148 145.399 97.303 142.91Z" fill="#DBC5FF"/>
<path d="M111.662 157.27C113.685 155.247 113.685 151.968 111.662 149.945C109.64 147.922 106.36 147.922 104.338 149.945C102.315 151.968 102.315 155.247 104.338 157.27C106.36 159.292 109.64 159.292 111.662 157.27Z" fill="#DBC5FF"/>
<path d="M126.015 171.622C127.568 170.069 127.568 167.55 126.015 165.997C124.462 164.444 121.943 164.444 120.39 165.997C118.837 167.55 118.837 170.069 120.39 171.622C121.943 173.175 124.462 173.175 126.015 171.622Z" fill="#DBC5FF"/>
<path d="M140.374 185.981C141.462 184.894 141.462 183.13 140.374 182.043C139.287 180.955 137.523 180.955 136.435 182.043C135.348 183.13 135.348 184.894 136.435 185.981C137.523 187.069 139.287 187.069 140.374 185.981Z" fill="#DBC5FF"/>
<path d="M154.727 200.334C155.345 199.716 155.345 198.713 154.727 198.095C154.108 197.477 153.106 197.477 152.488 198.095C151.87 198.713 151.87 199.716 152.488 200.334C153.106 200.952 154.108 200.952 154.727 200.334Z" fill="#DBC5FF"/>
<path d="M33.3216 48.524C34.0582 47.7875 34.0582 46.5933 33.3216 45.8567C32.5851 45.1201 31.3909 45.1201 30.6543 45.8567C29.9177 46.5933 29.9177 47.7875 30.6543 48.524C31.3909 49.2606 32.5851 49.2606 33.3216 48.524Z" fill="#DBC5FF"/>
<path d="M49.5813 64.7837C50.9018 63.4632 50.9018 61.3223 49.5813 60.0018C48.2608 58.6814 46.1199 58.6814 44.7994 60.0018C43.479 61.3223 43.479 63.4632 44.7994 64.7837C46.1199 66.1042 48.2608 66.1042 49.5813 64.7837Z" fill="#DBC5FF"/>
<path d="M65.841 81.0434C67.7453 79.139 67.7453 76.0514 65.841 74.147C63.9366 72.2426 60.849 72.2426 58.9446 74.147C57.0402 76.0514 57.0402 79.139 58.9446 81.0434C60.849 82.9477 63.9366 82.9477 65.841 81.0434Z" fill="#DBC5FF"/>
<path d="M82.1006 97.303C84.5889 94.8147 84.5889 90.7804 82.1006 88.2922C79.6123 85.8039 75.578 85.8039 73.0898 88.2922C70.6015 90.7804 70.6015 94.8147 73.0898 97.303C75.578 99.7913 79.6123 99.7913 82.1006 97.303Z" fill="#DBC5FF"/>
<path d="M98.3603 113.563C101.432 110.491 101.432 105.509 98.3603 102.437C95.2881 99.3651 90.3071 99.3651 87.2349 102.437C84.1627 105.509 84.1627 110.491 87.2349 113.563C90.3071 116.635 95.2881 116.635 98.3603 113.563Z" fill="#DBC5FF"/>
<path d="M113.563 128.765C116.635 125.693 116.635 120.712 113.563 117.64C110.491 114.568 105.51 114.568 102.437 117.64C99.3651 120.712 99.3651 125.693 102.437 128.765C105.51 131.837 110.491 131.837 113.563 128.765Z" fill="#DBC5FF"/>
<path d="M127.708 142.91C130.196 140.422 130.196 136.388 127.708 133.899C125.22 131.411 121.185 131.411 118.697 133.899C116.209 136.388 116.209 140.422 118.697 142.91C121.185 145.399 125.22 145.399 127.708 142.91Z" fill="#DBC5FF"/>
<path d="M141.853 157.055C143.757 155.151 143.757 152.063 141.853 150.159C139.949 148.255 136.861 148.255 134.957 150.159C133.052 152.063 133.052 155.151 134.957 157.055C136.861 158.96 139.949 158.96 141.853 157.055Z" fill="#DBC5FF"/>
<path d="M155.998 171.201C157.319 169.88 157.319 167.739 155.998 166.419C154.678 165.098 152.537 165.098 151.216 166.419C149.896 167.739 149.896 169.88 151.216 171.201C152.537 172.521 154.678 172.521 155.998 171.201Z" fill="#DBC5FF"/>
<path d="M170.143 185.346C170.88 184.609 170.88 183.415 170.143 182.678C169.407 181.942 168.213 181.942 167.476 182.678C166.739 183.415 166.739 184.609 167.476 185.346C168.213 186.082 169.407 186.082 170.143 185.346Z" fill="#DBC5FF"/>
<path d="M48.524 33.3216C49.2606 32.5851 49.2606 31.3909 48.524 30.6543C47.7875 29.9177 46.5933 29.9177 45.8567 30.6543C45.1201 31.3909 45.1201 32.5851 45.8567 33.3216C46.5933 34.0582 47.7875 34.0582 48.524 33.3216Z" fill="#DBC5FF"/>
<path d="M64.7837 49.5813C66.1042 48.2608 66.1042 46.1199 64.7837 44.7994C63.4632 43.479 61.3223 43.479 60.0019 44.7994C58.6814 46.1199 58.6814 48.2608 60.0019 49.5813C61.3223 50.9018 63.4632 50.9018 64.7837 49.5813Z" fill="#DBC5FF"/>
<path d="M81.0434 65.841C82.9478 63.9366 82.9478 60.849 81.0434 58.9446C79.139 57.0402 76.0514 57.0402 74.147 58.9446C72.2426 60.849 72.2426 63.9366 74.147 65.841C76.0514 67.7453 79.139 67.7453 81.0434 65.841Z" fill="#DBC5FF"/>
<path d="M97.303 82.1006C99.7913 79.6123 99.7913 75.578 97.303 73.0897C94.8148 70.6015 90.7804 70.6015 88.2922 73.0897C85.8039 75.578 85.8039 79.6123 88.2922 82.1006C90.7804 84.5889 94.8148 84.5889 97.303 82.1006Z" fill="#DBC5FF"/>
<path d="M113.563 98.3603C116.635 95.2881 116.635 90.3071 113.563 87.2349C110.491 84.1627 105.51 84.1627 102.437 87.2349C99.3651 90.3071 99.3651 95.2881 102.437 98.3603C105.51 101.432 110.491 101.432 113.563 98.3603Z" fill="#DBC5FF"/>
<path d="M128.765 113.563C131.837 110.491 131.837 105.509 128.765 102.437C125.693 99.3651 120.712 99.3651 117.64 102.437C114.568 105.509 114.568 110.491 117.64 113.563C120.712 116.635 125.693 116.635 128.765 113.563Z" fill="#DBC5FF"/>
<path d="M142.91 127.708C145.399 125.22 145.399 121.185 142.91 118.697C140.422 116.209 136.388 116.209 133.899 118.697C131.411 121.185 131.411 125.22 133.899 127.708C136.388 130.196 140.422 130.196 142.91 127.708Z" fill="#DBC5FF"/>
<path d="M157.055 141.853C158.96 139.949 158.96 136.861 157.055 134.957C155.151 133.052 152.063 133.052 150.159 134.957C148.255 136.861 148.255 139.949 150.159 141.853C152.063 143.757 155.151 143.757 157.055 141.853Z" fill="#DBC5FF"/>
<path d="M171.201 155.998C172.521 154.678 172.521 152.537 171.201 151.216C169.88 149.896 167.739 149.896 166.419 151.216C165.098 152.537 165.098 154.678 166.419 155.998C167.739 157.319 169.88 157.319 171.201 155.998Z" fill="#DBC5FF"/>
<path d="M185.346 170.143C186.082 169.407 186.082 168.213 185.346 167.476C184.609 166.739 183.415 166.739 182.678 167.476C181.942 168.213 181.942 169.407 182.678 170.143C183.415 170.88 184.609 170.88 185.346 170.143Z" fill="#DBC5FF"/>
<path d="M63.5122 17.905C64.1305 17.2867 64.1305 16.2844 63.5122 15.6661C62.894 15.0478 61.8916 15.0478 61.2733 15.6661C60.6551 16.2844 60.6551 17.2867 61.2733 17.905C61.8916 18.5233 62.894 18.5233 63.5122 17.905Z" fill="#DBC5FF"/>
<path d="M79.5646 33.9574C80.6523 32.8697 80.6523 31.1062 79.5646 30.0186C78.4769 28.9309 76.7134 28.9309 75.6258 30.0186C74.5381 31.1062 74.5381 32.8697 75.6258 33.9574C76.7134 35.045 78.4769 35.045 79.5646 33.9574Z" fill="#DBC5FF"/>
<path d="M95.61 50.0028C97.1633 48.4495 97.1633 45.9312 95.61 44.3779C94.0568 42.8246 91.5384 42.8247 89.9851 44.3779C88.4319 45.9312 88.4319 48.4496 89.9851 50.0028C91.5384 51.5561 94.0568 51.5561 95.61 50.0028Z" fill="#DBC5FF"/>
<path d="M111.662 66.0552C113.685 64.0325 113.685 60.7531 111.662 58.7304C109.64 56.7077 106.36 56.7077 104.338 58.7304C102.315 60.7531 102.315 64.0325 104.338 66.0552C106.36 68.0779 109.64 68.0779 111.662 66.0552Z" fill="#DBC5FF"/>
<path d="M127.708 82.1006C130.196 79.6123 130.196 75.578 127.708 73.0897C125.22 70.6014 121.185 70.6015 118.697 73.0897C116.209 75.578 116.209 79.6123 118.697 82.1006C121.185 84.5889 125.22 84.5889 127.708 82.1006Z" fill="#DBC5FF"/>
<path d="M142.91 97.303C145.399 94.8147 145.399 90.7804 142.91 88.2921C140.422 85.8039 136.388 85.8039 133.899 88.2922C131.411 90.7804 131.411 94.8148 133.899 97.303C136.388 99.7913 140.422 99.7913 142.91 97.303Z" fill="#DBC5FF"/>
<path d="M157.27 111.662C159.292 109.64 159.292 106.36 157.27 104.338C155.247 102.315 151.968 102.315 149.945 104.338C147.922 106.36 147.922 109.64 149.945 111.662C151.968 113.685 155.247 113.685 157.27 111.662Z" fill="#DBC5FF"/>
<path d="M171.622 126.015C173.175 124.462 173.175 121.943 171.622 120.39C170.069 118.837 167.55 118.837 165.997 120.39C164.444 121.943 164.444 124.462 165.997 126.015C167.55 127.568 170.069 127.568 171.622 126.015Z" fill="#DBC5FF"/>
<path d="M185.981 140.374C187.069 139.287 187.069 137.523 185.981 136.435C184.894 135.348 183.13 135.348 182.043 136.435C180.955 137.523 180.955 139.287 182.043 140.374C183.13 141.462 184.894 141.462 185.981 140.374Z" fill="#DBC5FF"/>
<path d="M200.334 154.727C200.952 154.108 200.952 153.106 200.334 152.488C199.716 151.87 198.713 151.87 198.095 152.488C197.477 153.106 197.477 154.108 198.095 154.727C198.713 155.345 199.716 155.345 200.334 154.727Z" fill="#DBC5FF"/>
<path d="M94.3455 18.3334C95.2004 17.4785 95.2004 16.0925 94.3455 15.2377C93.4906 14.3828 92.1046 14.3828 91.2497 15.2377C90.3949 16.0925 90.3948 17.4786 91.2497 18.3334C92.1046 19.1883 93.4906 19.1883 94.3455 18.3334Z" fill="#DBC5FF"/>
<path d="M110.177 34.1647C111.379 32.9625 111.379 31.0134 110.177 29.8113C108.975 28.6091 107.025 28.6091 105.823 29.8113C104.621 31.0134 104.621 32.9625 105.823 34.1647C107.025 35.3668 108.975 35.3668 110.177 34.1647Z" fill="#DBC5FF"/>
<path d="M126.015 50.0028C127.568 48.4495 127.568 45.9312 126.015 44.3779C124.462 42.8246 121.943 42.8247 120.39 44.3779C118.837 45.9312 118.837 48.4496 120.39 50.0028C121.943 51.5561 124.462 51.5561 126.015 50.0028Z" fill="#DBC5FF"/>
<path d="M141.853 65.841C143.757 63.9366 143.757 60.849 141.853 58.9446C139.949 57.0402 136.861 57.0402 134.957 58.9446C133.052 60.849 133.052 63.9366 134.957 65.841C136.861 67.7453 139.949 67.7453 141.853 65.841Z" fill="#DBC5FF"/>
<path d="M157.055 81.0434C158.96 79.139 158.96 76.0514 157.055 74.147C155.151 72.2426 152.063 72.2426 150.159 74.147C148.255 76.0514 148.255 79.139 150.159 81.0434C152.063 82.9477 155.151 82.9477 157.055 81.0434Z" fill="#DBC5FF"/>
<path d="M171.622 95.61C173.175 94.0568 173.175 91.5384 171.622 89.9851C170.069 88.4319 167.55 88.4319 165.997 89.9851C164.444 91.5384 164.444 94.0568 165.997 95.61C167.55 97.1633 170.069 97.1633 171.622 95.61Z" fill="#DBC5FF"/>
<path d="M186.189 110.177C187.391 108.975 187.391 107.025 186.189 105.823C184.987 104.621 183.038 104.621 181.835 105.823C180.633 107.025 180.633 108.975 181.835 110.177C183.038 111.379 184.987 111.379 186.189 110.177Z" fill="#DBC5FF"/>
<path d="M200.762 124.75C201.617 123.895 201.617 122.509 200.762 121.655C199.908 120.8 198.521 120.8 197.667 121.655C196.812 122.509 196.812 123.895 197.667 124.75C198.521 125.605 199.908 125.605 200.762 124.75Z" fill="#DBC5FF"/>
<path d="M109.119 2.70259C109.738 2.08433 109.738 1.08195 109.119 0.463693C108.501 -0.154562 107.499 -0.154566 106.881 0.463689C106.262 1.08194 106.262 2.08433 106.881 2.70259C107.499 3.32084 108.501 3.32084 109.119 2.70259Z" fill="#DBC5FF"/>
<path d="M124.75 18.3334C125.605 17.4785 125.605 16.0925 124.75 15.2377C123.895 14.3828 122.509 14.3828 121.655 15.2377C120.8 16.0925 120.8 17.4786 121.655 18.3334C122.509 19.1883 123.895 19.1883 124.75 18.3334Z" fill="#DBC5FF"/>
<path d="M140.374 33.9574C141.462 32.8697 141.462 31.1062 140.374 30.0186C139.287 28.9309 137.523 28.9309 136.435 30.0186C135.348 31.1062 135.348 32.8697 136.435 33.9574C137.523 35.045 139.287 35.045 140.374 33.9574Z" fill="#DBC5FF"/>
<path d="M155.998 49.5813C157.319 48.2608 157.319 46.1199 155.998 44.7994C154.678 43.479 152.537 43.479 151.216 44.7994C149.896 46.1199 149.896 48.2608 151.216 49.5813C152.537 50.9018 154.678 50.9018 155.998 49.5813Z" fill="#DBC5FF"/>
<path d="M171.201 64.7837C172.521 63.4632 172.521 61.3223 171.201 60.0018C169.88 58.6814 167.739 58.6814 166.419 60.0018C165.098 61.3223 165.098 63.4632 166.419 64.7837C167.739 66.1042 169.88 66.1042 171.201 64.7837Z" fill="#DBC5FF"/>
<path d="M185.981 79.5646C187.069 78.4769 187.069 76.7134 185.981 75.6258C184.894 74.5381 183.13 74.5381 182.043 75.6258C180.955 76.7134 180.955 78.4769 182.043 79.5646C183.13 80.6523 184.894 80.6523 185.981 79.5646Z" fill="#DBC5FF"/>
<path d="M200.762 94.3455C201.617 93.4906 201.617 92.1046 200.762 91.2497C199.908 90.3948 198.521 90.3948 197.667 91.2497C196.812 92.1046 196.812 93.4906 197.667 94.3455C198.521 95.2003 199.908 95.2003 200.762 94.3455Z" fill="#DBC5FF"/>
<path d="M215.536 109.119C216.155 108.501 216.155 107.499 215.536 106.881C214.918 106.262 213.916 106.262 213.297 106.881C212.679 107.499 212.679 108.501 213.297 109.119C213.916 109.738 214.918 109.738 215.536 109.119Z" fill="#DBC5FF"/>
<path d="M154.727 17.905C155.345 17.2867 155.345 16.2844 154.727 15.6661C154.108 15.0478 153.106 15.0478 152.488 15.6661C151.87 16.2844 151.87 17.2867 152.488 17.905C153.106 18.5233 154.108 18.5233 154.727 17.905Z" fill="#DBC5FF"/>
<path d="M170.143 33.3216C170.88 32.5851 170.88 31.3909 170.143 30.6543C169.407 29.9177 168.213 29.9177 167.476 30.6543C166.739 31.3909 166.739 32.5851 167.476 33.3216C168.213 34.0582 169.407 34.0582 170.143 33.3216Z" fill="#DBC5FF"/>
<path d="M185.346 48.524C186.082 47.7875 186.082 46.5933 185.346 45.8567C184.609 45.1201 183.415 45.1201 182.678 45.8567C181.942 46.5933 181.942 47.7875 182.678 48.524C183.415 49.2606 184.609 49.2606 185.346 48.524Z" fill="#DBC5FF"/>
<path d="M200.334 63.5122C200.952 62.894 200.952 61.8916 200.334 61.2733C199.716 60.6551 198.713 60.6551 198.095 61.2733C197.477 61.8916 197.477 62.894 198.095 63.5122C198.713 64.1305 199.716 64.1305 200.334 63.5122Z" fill="#DBC5FF"/>
</svg>
