<svg width="106" height="106" viewBox="0 0 106 106" fill="none" xmlns="http://www.w3.org/2000/svg">
<path d="M104.919 36.4982C104.449 36.4982 104.069 36.1176 104.069 35.648C104.069 35.1785 104.449 34.7979 104.919 34.7979C105.388 34.7979 105.769 35.1785 105.769 35.6481C105.769 36.1176 105.388 36.4982 104.919 36.4982Z" fill="#F0F424"/>
<path d="M104.919 48.206C104.359 48.206 103.906 47.7525 103.906 47.1931C103.906 46.6338 104.359 46.1803 104.919 46.1803C105.478 46.1803 105.932 46.6338 105.932 47.1931C105.932 47.7525 105.478 48.206 104.919 48.206Z" fill="#F0F424"/>
<path d="M104.919 59.7511C104.359 59.7511 103.906 59.2976 103.906 58.7382C103.906 58.1789 104.359 57.7254 104.919 57.7254C105.478 57.7254 105.932 58.1789 105.932 58.7382C105.932 59.2976 105.478 59.7511 104.919 59.7511Z" fill="#F0F424"/>
<path d="M104.919 71.1335C104.449 71.1335 104.069 70.7528 104.069 70.2833C104.069 69.8138 104.449 69.4332 104.919 69.4332C105.388 69.4332 105.769 69.8138 105.769 70.2833C105.769 70.7528 105.388 71.1335 104.919 71.1335Z" fill="#F0F424"/>
<path d="M93.3736 13.408C92.9041 13.408 92.5235 13.0274 92.5235 12.5579C92.5235 12.0883 92.9041 11.7077 93.3737 11.7077C93.8432 11.7077 94.2238 12.0883 94.2238 12.5579C94.2238 13.0274 93.8432 13.408 93.3736 13.408Z" fill="#F0F424"/>
<path d="M93.3736 25.2785C92.7244 25.2785 92.1981 24.7522 92.1981 24.103C92.1981 23.4537 92.7244 22.9275 93.3737 22.9275C94.0229 22.9275 94.5491 23.4537 94.5491 24.103C94.5491 24.7522 94.0229 25.2785 93.3736 25.2785Z" fill="#F0F424"/>
<path d="M93.3736 37.1437C92.5476 37.1437 91.878 36.4741 91.878 35.648C91.878 34.822 92.5476 34.1524 93.3736 34.1524C94.1997 34.1524 94.8693 34.822 94.8693 35.648C94.8693 36.4741 94.1997 37.1437 93.3736 37.1437Z" fill="#F0F424"/>
<path d="M93.3736 49.0089C92.3708 49.0089 91.5579 48.1959 91.5579 47.1931C91.5579 46.1903 92.3709 45.3774 93.3737 45.3774C94.3764 45.3774 95.1894 46.1903 95.1894 47.1931C95.1894 48.1959 94.3764 49.0089 93.3736 49.0089Z" fill="#F0F424"/>
<path d="M93.3736 60.554C92.3708 60.554 91.5579 59.741 91.5579 58.7382C91.5579 57.7354 92.3708 56.9225 93.3736 56.9225C94.3765 56.9225 95.1894 57.7354 95.1894 58.7382C95.1894 59.741 94.3764 60.554 93.3736 60.554Z" fill="#F0F424"/>
<path d="M93.3736 71.7789C92.5476 71.7789 91.878 71.1093 91.878 70.2833C91.878 69.4573 92.5476 68.7877 93.3736 68.7877C94.1997 68.7877 94.8693 69.4573 94.8693 70.2833C94.8693 71.1093 94.1997 71.7789 93.3736 71.7789Z" fill="#F0F424"/>
<path d="M93.3736 83.0039C92.7244 83.0039 92.1981 82.4776 92.1981 81.8284C92.1981 81.1792 92.7244 80.6529 93.3737 80.6529C94.0229 80.6529 94.5491 81.1792 94.5491 81.8284C94.5492 82.4776 94.0229 83.0039 93.3736 83.0039Z" fill="#F0F424"/>
<path d="M93.3736 94.2237C92.9041 94.2237 92.5235 93.843 92.5235 93.3735C92.5235 92.904 92.9041 92.5234 93.3737 92.5234C93.8432 92.5234 94.2238 92.904 94.2238 93.3735C94.2238 93.843 93.8432 94.2237 93.3736 94.2237Z" fill="#F0F424"/>
<path d="M81.8286 13.7334C81.1793 13.7334 80.6531 13.2071 80.6531 12.5579C80.6531 11.9086 81.1793 11.3824 81.8286 11.3824C82.4778 11.3824 83.0041 11.9086 83.0041 12.5579C83.0041 13.2071 82.4778 13.7334 81.8286 13.7334Z" fill="#F0F424"/>
<path d="M81.8286 25.756C80.9156 25.756 80.1755 25.0159 80.1755 24.103C80.1755 23.19 80.9156 22.4499 81.8286 22.4499C82.7415 22.4499 83.4816 23.19 83.4816 24.103C83.4816 25.0159 82.7415 25.756 81.8286 25.756Z" fill="#F0F424"/>
<path d="M81.8286 37.7839C80.649 37.7839 79.6927 36.8276 79.6927 35.6481C79.6927 34.4685 80.649 33.5122 81.8286 33.5122C83.0081 33.5122 83.9644 34.4685 83.9644 35.648C83.9644 36.8276 83.0081 37.7839 81.8286 37.7839Z" fill="#F0F424"/>
<path d="M81.8286 49.8118C80.3823 49.8118 79.2099 48.6394 79.2099 47.1931C79.2099 45.7469 80.3823 44.5745 81.8286 44.5745C83.2748 44.5745 84.4472 45.7469 84.4472 47.1931C84.4472 48.6394 83.2748 49.8118 81.8286 49.8118Z" fill="#F0F424"/>
<path d="M81.8286 61.3569C80.3823 61.3569 79.2099 60.1845 79.2099 58.7382C79.2099 57.292 80.3823 56.1196 81.8286 56.1196C83.2748 56.1196 84.4472 57.292 84.4472 58.7382C84.4472 60.1845 83.2748 61.3569 81.8286 61.3569Z" fill="#F0F424"/>
<path d="M81.8286 72.4192C80.649 72.4192 79.6927 71.4629 79.6927 70.2833C79.6927 69.1037 80.649 68.1475 81.8285 68.1475C83.0081 68.1475 83.9644 69.1037 83.9644 70.2833C83.9644 71.4629 83.0081 72.4192 81.8286 72.4192Z" fill="#F0F424"/>
<path d="M81.8286 83.4815C80.9156 83.4815 80.1755 82.7414 80.1755 81.8284C80.1755 80.9155 80.9156 80.1754 81.8286 80.1754C82.7415 80.1754 83.4816 80.9155 83.4816 81.8284C83.4816 82.7414 82.7415 83.4815 81.8286 83.4815Z" fill="#F0F424"/>
<path d="M81.8286 94.549C81.1793 94.549 80.6531 94.0227 80.6531 93.3735C80.653 92.7243 81.1793 92.198 81.8286 92.198C82.4778 92.198 83.0041 92.7243 83.0041 93.3735C83.0041 94.0227 82.4778 94.549 81.8286 94.549Z" fill="#F0F424"/>
<path d="M70.2835 1.8629C69.8139 1.8629 69.4333 1.48228 69.4333 1.01276C69.4333 0.543245 69.8139 0.162628 70.2835 0.162628C70.753 0.162626 71.1336 0.543245 71.1336 1.01276C71.1336 1.48228 70.753 1.8629 70.2835 1.8629Z" fill="#F0F424"/>
<path d="M70.2835 14.0535C69.4575 14.0535 68.7878 13.3839 68.7878 12.5579C68.7878 11.7319 69.4575 11.0622 70.2835 11.0622C71.1095 11.0622 71.7791 11.7319 71.7791 12.5579C71.7791 13.3839 71.1095 14.0535 70.2835 14.0535Z" fill="#F0F424"/>
<path d="M70.2835 26.2388C69.1039 26.2388 68.1476 25.2825 68.1476 24.103C68.1476 22.9234 69.1039 21.9671 70.2835 21.9671C71.4631 21.9671 72.4193 22.9234 72.4193 24.103C72.4193 25.2825 71.4631 26.2388 70.2835 26.2388Z" fill="#F0F424"/>
<path d="M70.2835 38.4294C68.7474 38.4294 67.5021 37.1841 67.5021 35.6481C67.5021 34.112 68.7474 32.8667 70.2835 32.8667C71.8195 32.8667 73.0648 34.112 73.0648 35.6481C73.0648 37.1841 71.8195 38.4294 70.2835 38.4294Z" fill="#F0F424"/>
<path d="M70.2835 50.6147C68.3938 50.6147 66.8619 49.0828 66.8619 47.1931C66.8619 45.3035 68.3938 43.7716 70.2835 43.7716C72.1731 43.7716 73.705 45.3035 73.705 47.1931C73.705 49.0828 72.1731 50.6147 70.2835 50.6147Z" fill="#F0F424"/>
<path d="M70.2835 62.1598C68.3938 62.1598 66.8619 60.6279 66.8619 58.7382C66.8619 56.8486 68.3938 55.3167 70.2835 55.3167C72.1731 55.3167 73.705 56.8486 73.705 58.7382C73.705 60.6279 72.1731 62.1598 70.2835 62.1598Z" fill="#F0F424"/>
<path d="M70.2835 73.0647C68.7474 73.0647 67.5021 71.8194 67.5021 70.2833C67.5021 68.7473 68.7474 67.502 70.2835 67.502C71.8195 67.502 73.0648 68.7473 73.0648 70.2833C73.0648 71.8194 71.8195 73.0647 70.2835 73.0647Z" fill="#F0F424"/>
<path d="M70.2835 83.9643C69.1039 83.9643 68.1476 83.008 68.1476 81.8284C68.1476 80.6488 69.1039 79.6926 70.2835 79.6926C71.4631 79.6926 72.4193 80.6488 72.4193 81.8284C72.4193 83.008 71.4631 83.9643 70.2835 83.9643Z" fill="#F0F424"/>
<path d="M70.2835 94.8691C69.4574 94.8691 68.7878 94.1995 68.7878 93.3735C68.7879 92.5475 69.4575 91.8779 70.2835 91.8779C71.1095 91.8779 71.7791 92.5475 71.7791 93.3735C71.7791 94.1995 71.1095 94.8691 70.2835 94.8691Z" fill="#F0F424"/>
<path d="M70.2835 105.769C69.8139 105.769 69.4333 105.388 69.4333 104.919C69.4333 104.449 69.8139 104.068 70.2835 104.068C70.753 104.068 71.1336 104.449 71.1336 104.919C71.1336 105.388 70.753 105.769 70.2835 105.769Z" fill="#F0F424"/>
<path d="M58.7384 2.02558C58.179 2.02558 57.7255 1.57213 57.7255 1.01276C57.7255 0.4534 58.179 -5.43688e-05 58.7384 -5.43688e-05C59.2977 -5.43688e-05 59.7512 0.4534 59.7512 1.01276C59.7512 1.57213 59.2977 2.02558 58.7384 2.02558Z" fill="#F0F424"/>
<path d="M58.7384 14.3736C57.7356 14.3736 56.9226 13.5607 56.9226 12.5579C56.9226 11.5551 57.7356 10.7421 58.7384 10.7421C59.7412 10.7421 60.5541 11.5551 60.5541 12.5579C60.5541 13.5607 59.7412 14.3736 58.7384 14.3736Z" fill="#F0F424"/>
<path d="M58.7384 26.7216C57.2921 26.7216 56.1197 25.5492 56.1197 24.103C56.1197 22.6567 57.2921 21.4843 58.7384 21.4843C60.1846 21.4843 61.357 22.6567 61.357 24.103C61.357 25.5492 60.1846 26.7216 58.7384 26.7216Z" fill="#F0F424"/>
<path d="M58.7384 39.0696C56.8487 39.0696 55.3168 37.5377 55.3168 35.648C55.3168 33.7584 56.8487 32.2265 58.7384 32.2265C60.628 32.2265 62.1599 33.7584 62.1599 35.6481C62.1599 37.5377 60.628 39.0696 58.7384 39.0696Z" fill="#F0F424"/>
<path d="M58.7384 51.4176C56.4053 51.4176 54.5139 49.5262 54.5139 47.1931C54.5139 44.86 56.4053 42.9687 58.7384 42.9687C61.0715 42.9687 62.9628 44.86 62.9628 47.1931C62.9628 49.5262 61.0715 51.4176 58.7384 51.4176Z" fill="#F0F424"/>
<path d="M58.7384 62.9627C56.4053 62.9627 54.5139 61.0713 54.5139 58.7382C54.5139 56.4051 56.4053 54.5138 58.7384 54.5138C61.0715 54.5138 62.9628 56.4051 62.9628 58.7382C62.9628 61.0713 61.0715 62.9627 58.7384 62.9627Z" fill="#F0F424"/>
<path d="M58.7384 73.7049C56.8487 73.7049 55.3168 72.173 55.3168 70.2833C55.3168 68.3937 56.8487 66.8618 58.7384 66.8618C60.628 66.8618 62.1599 68.3937 62.1599 70.2833C62.1599 72.173 60.628 73.7049 58.7384 73.7049Z" fill="#F0F424"/>
<path d="M58.7384 84.4471C57.2921 84.4471 56.1197 83.2747 56.1197 81.8284C56.1197 80.3822 57.2921 79.2098 58.7384 79.2098C60.1846 79.2098 61.357 80.3822 61.357 81.8284C61.357 83.2747 60.1846 84.4471 58.7384 84.4471Z" fill="#F0F424"/>
<path d="M58.7384 95.1893C57.7356 95.1893 56.9226 94.3763 56.9226 93.3735C56.9226 92.3707 57.7356 91.5578 58.7384 91.5578C59.7412 91.5578 60.5541 92.3707 60.5541 93.3735C60.5541 94.3763 59.7412 95.1893 58.7384 95.1893Z" fill="#F0F424"/>
<path d="M58.7384 105.931C58.179 105.931 57.7255 105.478 57.7255 104.919C57.7255 104.359 58.179 103.906 58.7384 103.906C59.2977 103.906 59.7512 104.359 59.7512 104.919C59.7512 105.478 59.2977 105.931 58.7384 105.931Z" fill="#F0F424"/>
<path d="M47.1933 2.02558C46.6339 2.02558 46.1805 1.57213 46.1805 1.01276C46.1805 0.4534 46.6339 -5.43688e-05 47.1933 -5.43688e-05C47.7526 -5.43688e-05 48.2061 0.4534 48.2061 1.01276C48.2061 1.57213 47.7526 2.02558 47.1933 2.02558Z" fill="#F0F424"/>
<path d="M47.1933 14.3736C46.1905 14.3736 45.3775 13.5607 45.3775 12.5579C45.3775 11.5551 46.1905 10.7421 47.1933 10.7421C48.1961 10.7421 49.009 11.5551 49.009 12.5579C49.009 13.5607 48.1961 14.3736 47.1933 14.3736Z" fill="#F0F424"/>
<path d="M47.1933 26.7216C45.747 26.7216 44.5746 25.5492 44.5746 24.103C44.5746 22.6567 45.747 21.4843 47.1933 21.4843C48.6395 21.4843 49.8119 22.6567 49.8119 24.103C49.8119 25.5492 48.6395 26.7216 47.1933 26.7216Z" fill="#F0F424"/>
<path d="M47.1933 39.0696C45.3036 39.0696 43.7717 37.5377 43.7717 35.6481C43.7717 33.7584 45.3036 32.2265 47.1933 32.2265C49.0829 32.2265 50.6148 33.7584 50.6148 35.648C50.6148 37.5377 49.0829 39.0696 47.1933 39.0696Z" fill="#F0F424"/>
<path d="M47.1933 51.4176C44.8602 51.4176 42.9688 49.5262 42.9688 47.1931C42.9688 44.86 44.8602 42.9687 47.1933 42.9687C49.5264 42.9687 51.4177 44.86 51.4177 47.1931C51.4177 49.5262 49.5264 51.4176 47.1933 51.4176Z" fill="#F0F424"/>
<path d="M47.1933 62.9627C44.8602 62.9627 42.9688 61.0713 42.9688 58.7382C42.9688 56.4051 44.8602 54.5138 47.1933 54.5138C49.5264 54.5138 51.4177 56.4051 51.4177 58.7382C51.4177 61.0713 49.5264 62.9627 47.1933 62.9627Z" fill="#F0F424"/>
<path d="M47.1933 73.7049C45.3036 73.7049 43.7717 72.173 43.7717 70.2833C43.7717 68.3937 45.3036 66.8618 47.1933 66.8618C49.0829 66.8618 50.6148 68.3937 50.6148 70.2833C50.6148 72.173 49.0829 73.7049 47.1933 73.7049Z" fill="#F0F424"/>
<path d="M47.1933 84.4471C45.747 84.4471 44.5746 83.2747 44.5746 81.8284C44.5746 80.3822 45.747 79.2098 47.1933 79.2098C48.6395 79.2098 49.8119 80.3822 49.8119 81.8284C49.8119 83.2747 48.6395 84.4471 47.1933 84.4471Z" fill="#F0F424"/>
<path d="M47.1933 95.1893C46.1905 95.1893 45.3775 94.3763 45.3775 93.3735C45.3775 92.3707 46.1905 91.5578 47.1933 91.5578C48.1961 91.5578 49.009 92.3707 49.009 93.3735C49.009 94.3763 48.1961 95.1893 47.1933 95.1893Z" fill="#F0F424"/>
<path d="M47.1933 105.931C46.6339 105.931 46.1805 105.478 46.1805 104.919C46.1805 104.359 46.6339 103.906 47.1933 103.906C47.7526 103.906 48.2061 104.359 48.2061 104.919C48.2061 105.478 47.7526 105.931 47.1933 105.931Z" fill="#F0F424"/>
<path d="M35.6482 1.8629C35.1787 1.8629 34.798 1.48228 34.798 1.01277C34.798 0.543246 35.1787 0.162626 35.6482 0.162628C36.1177 0.162627 36.4983 0.543246 36.4983 1.01277C36.4983 1.48228 36.1177 1.8629 35.6482 1.8629Z" fill="#F0F424"/>
<path d="M35.6482 14.0535C34.8222 14.0535 34.1526 13.3839 34.1526 12.5579C34.1526 11.7319 34.8222 11.0622 35.6482 11.0622C36.4742 11.0622 37.1438 11.7319 37.1438 12.5579C37.1438 13.3839 36.4742 14.0535 35.6482 14.0535Z" fill="#F0F424"/>
<path d="M35.6482 26.2388C34.4686 26.2388 33.5123 25.2825 33.5123 24.103C33.5123 22.9234 34.4686 21.9671 35.6482 21.9671C36.8278 21.9671 37.784 22.9234 37.784 24.103C37.784 25.2826 36.8278 26.2388 35.6482 26.2388Z" fill="#F0F424"/>
<path d="M35.6482 38.4294C34.1121 38.4294 32.8669 37.1841 32.8669 35.648C32.8669 34.112 34.1121 32.8667 35.6482 32.8667C37.1842 32.8667 38.4295 34.112 38.4295 35.648C38.4295 37.1841 37.1843 38.4294 35.6482 38.4294Z" fill="#F0F424"/>
<path d="M35.6482 50.6147C33.7585 50.6147 32.2266 49.0828 32.2266 47.1931C32.2266 45.3035 33.7585 43.7716 35.6482 43.7716C37.5378 43.7716 39.0697 45.3035 39.0697 47.1931C39.0697 49.0828 37.5378 50.6147 35.6482 50.6147Z" fill="#F0F424"/>
<path d="M35.6482 62.1598C33.7585 62.1598 32.2266 60.6279 32.2266 58.7382C32.2266 56.8486 33.7585 55.3167 35.6482 55.3167C37.5378 55.3167 39.0697 56.8486 39.0697 58.7382C39.0697 60.6279 37.5378 62.1598 35.6482 62.1598Z" fill="#F0F424"/>
<path d="M35.6482 73.0647C34.1121 73.0647 32.8669 71.8194 32.8669 70.2833C32.8669 68.7473 34.1121 67.502 35.6482 67.502C37.1842 67.502 38.4295 68.7473 38.4295 70.2833C38.4295 71.8194 37.1842 73.0647 35.6482 73.0647Z" fill="#F0F424"/>
<path d="M35.6482 83.9643C34.4686 83.9643 33.5123 83.008 33.5123 81.8284C33.5123 80.6488 34.4686 79.6926 35.6482 79.6926C36.8278 79.6926 37.784 80.6488 37.784 81.8284C37.784 83.008 36.8278 83.9643 35.6482 83.9643Z" fill="#F0F424"/>
<path d="M35.6482 94.8691C34.8222 94.8691 34.1526 94.1995 34.1526 93.3735C34.1526 92.5475 34.8222 91.8779 35.6482 91.8779C36.4742 91.8779 37.1438 92.5475 37.1438 93.3735C37.1438 94.1995 36.4742 94.8691 35.6482 94.8691Z" fill="#F0F424"/>
<path d="M35.6482 105.769C35.1787 105.769 34.798 105.388 34.798 104.919C34.798 104.449 35.1787 104.068 35.6482 104.068C36.1177 104.068 36.4983 104.449 36.4983 104.919C36.4983 105.388 36.1177 105.769 35.6482 105.769Z" fill="#F0F424"/>
<path d="M24.1031 13.7334C23.4539 13.7334 22.9276 13.2071 22.9276 12.5579C22.9276 11.9086 23.4539 11.3824 24.1031 11.3824C24.7523 11.3824 25.2786 11.9086 25.2786 12.5579C25.2786 13.2071 24.7523 13.7334 24.1031 13.7334Z" fill="#F0F424"/>
<path d="M24.1031 25.756C23.1901 25.756 22.45 25.0159 22.45 24.103C22.45 23.19 23.1901 22.4499 24.1031 22.4499C25.016 22.4499 25.7561 23.19 25.7561 24.103C25.7561 25.0159 25.016 25.756 24.1031 25.756Z" fill="#F0F424"/>
<path d="M24.1031 37.7839C22.9235 37.7839 21.9672 36.8276 21.9672 35.648C21.9672 34.4685 22.9235 33.5122 24.1031 33.5122C25.2827 33.5122 26.2389 34.4685 26.2389 35.648C26.2389 36.8276 25.2827 37.7839 24.1031 37.7839Z" fill="#F0F424"/>
<path d="M24.1031 49.8118C22.6568 49.8118 21.4844 48.6394 21.4844 47.1931C21.4844 45.7469 22.6568 44.5745 24.1031 44.5745C25.5493 44.5745 26.7217 45.7469 26.7217 47.1931C26.7217 48.6394 25.5493 49.8118 24.1031 49.8118Z" fill="#F0F424"/>
<path d="M24.1031 61.3569C22.6568 61.3569 21.4844 60.1845 21.4844 58.7382C21.4844 57.292 22.6568 56.1196 24.1031 56.1196C25.5493 56.1196 26.7217 57.292 26.7217 58.7382C26.7217 60.1845 25.5493 61.3569 24.1031 61.3569Z" fill="#F0F424"/>
<path d="M24.1031 72.4192C22.9235 72.4192 21.9672 71.4629 21.9672 70.2833C21.9672 69.1037 22.9235 68.1475 24.1031 68.1475C25.2827 68.1475 26.2389 69.1037 26.2389 70.2833C26.2389 71.4629 25.2827 72.4192 24.1031 72.4192Z" fill="#F0F424"/>
<path d="M24.1031 83.4815C23.1901 83.4815 22.45 82.7414 22.45 81.8284C22.45 80.9155 23.1901 80.1754 24.1031 80.1754C25.016 80.1754 25.7561 80.9155 25.7561 81.8284C25.7561 82.7414 25.016 83.4815 24.1031 83.4815Z" fill="#F0F424"/>
<path d="M24.1031 94.549C23.4539 94.549 22.9276 94.0227 22.9276 93.3735C22.9276 92.7243 23.4539 92.198 24.1031 92.198C24.7523 92.198 25.2786 92.7243 25.2786 93.3735C25.2786 94.0227 24.7523 94.549 24.1031 94.549Z" fill="#F0F424"/>
<path d="M12.558 13.408C12.0885 13.408 11.7079 13.0274 11.7079 12.5579C11.7079 12.0883 12.0885 11.7077 12.558 11.7077C13.0275 11.7077 13.4081 12.0883 13.4081 12.5579C13.4081 13.0274 13.0275 13.408 12.558 13.408Z" fill="#F0F424"/>
<path d="M12.558 25.2785C11.9088 25.2785 11.3825 24.7522 11.3825 24.103C11.3825 23.4537 11.9088 22.9275 12.558 22.9274C13.2072 22.9275 13.7335 23.4537 13.7335 24.103C13.7335 24.7522 13.2072 25.2785 12.558 25.2785Z" fill="#F0F424"/>
<path d="M12.558 37.1437C11.732 37.1437 11.0624 36.4741 11.0624 35.6481C11.0624 34.822 11.732 34.1524 12.558 34.1524C13.384 34.1524 14.0536 34.822 14.0536 35.648C14.0536 36.4741 13.384 37.1437 12.558 37.1437Z" fill="#F0F424"/>
<path d="M12.558 49.0089C11.5552 49.0089 10.7423 48.1959 10.7423 47.1931C10.7423 46.1903 11.5552 45.3774 12.558 45.3774C13.5608 45.3774 14.3737 46.1903 14.3737 47.1931C14.3737 48.1959 13.5608 49.0089 12.558 49.0089Z" fill="#F0F424"/>
<path d="M12.558 60.554C11.5552 60.554 10.7423 59.741 10.7423 58.7382C10.7423 57.7354 11.5552 56.9225 12.558 56.9225C13.5608 56.9225 14.3737 57.7354 14.3737 58.7382C14.3737 59.741 13.5608 60.554 12.558 60.554Z" fill="#F0F424"/>
<path d="M12.558 71.7789C11.732 71.7789 11.0624 71.1093 11.0624 70.2833C11.0624 69.4573 11.732 68.7877 12.558 68.7877C13.384 68.7877 14.0536 69.4573 14.0536 70.2833C14.0536 71.1093 13.384 71.7789 12.558 71.7789Z" fill="#F0F424"/>
<path d="M12.558 83.0039C11.9088 83.0039 11.3825 82.4776 11.3825 81.8284C11.3825 81.1792 11.9088 80.6529 12.558 80.6529C13.2072 80.6529 13.7335 81.1792 13.7335 81.8284C13.7335 82.4776 13.2072 83.0039 12.558 83.0039Z" fill="#F0F424"/>
<path d="M12.558 94.2237C12.0885 94.2237 11.7079 93.843 11.7079 93.3735C11.7079 92.904 12.0885 92.5234 12.558 92.5234C13.0275 92.5234 13.4081 92.904 13.4081 93.3735C13.4081 93.843 13.0275 94.2237 12.558 94.2237Z" fill="#F0F424"/>
<path d="M1.01289 36.4982C0.543381 36.4982 0.162762 36.1176 0.162757 35.6481C0.162758 35.1785 0.54338 34.7979 1.0129 34.7979C1.48242 34.7979 1.86303 35.1785 1.86303 35.648C1.86303 36.1176 1.48241 36.4982 1.01289 36.4982Z" fill="#F0F424"/>
<path d="M1.01289 48.206C0.453529 48.206 8.16976e-05 47.7525 8.16976e-05 47.1931C8.16976e-05 46.6338 0.453528 46.1803 1.01289 46.1803C1.57226 46.1803 2.02571 46.6338 2.02571 47.1931C2.02571 47.7525 1.57226 48.206 1.01289 48.206Z" fill="#F0F424"/>
<path d="M1.0129 59.7511C0.453531 59.7511 8.30463e-05 59.2976 8.30463e-05 58.7382C8.30463e-05 58.1789 0.453529 57.7254 1.01289 57.7254C1.57226 57.7254 2.02571 58.1789 2.02571 58.7382C2.02571 59.2976 1.57226 59.7511 1.0129 59.7511Z" fill="#F0F424"/>
<path d="M1.0129 71.1335C0.543382 71.1335 0.162766 70.7528 0.16276 70.2833C0.16276 69.8138 0.54338 69.4332 1.0129 69.4332C1.48242 69.4332 1.86304 69.8138 1.86304 70.2833C1.86304 70.7528 1.48242 71.1335 1.0129 71.1335Z" fill="#F0F424"/>
</svg>
