<svg width="22" height="22" viewBox="0 0 22 22" fill="none" xmlns="http://www.w3.org/2000/svg">
<g clip-path="url(#paint0_angular_3273_13619_clip_path)" data-figma-skip-parse="true"><g transform="matrix(0 -0.0139453 0.0139453 0 11 11.0643)"><foreignObject x="-865.119" y="-865.119" width="1730.24" height="1730.24"><div xmlns="http://www.w3.org/1999/xhtml" style="background:conic-gradient(from 90deg,rgba(95, 220, 178, 1) 0deg,rgba(4, 59, 46, 1) 360deg);height:100%;width:100%;opacity:1"></div></foreignObject></g></g><path d="M1.97456 16.7396C2.42627 16.2878 2.42627 15.5555 1.97456 15.1038C1.52285 14.6521 0.79049 14.6521 0.338782 15.1038C-0.112927 15.5555 -0.112927 16.2878 0.338782 16.7396C0.79049 17.1913 1.52285 17.1913 1.97456 16.7396Z" data-figma-gradient-fill="{&#34;type&#34;:&#34;GRADIENT_ANGULAR&#34;,&#34;stops&#34;:[{&#34;color&#34;:{&#34;r&#34;:0.37254902720451355,&#34;g&#34;:0.86274510622024536,&#34;b&#34;:0.69803923368453979,&#34;a&#34;:1.0},&#34;position&#34;:0.0},{&#34;color&#34;:{&#34;r&#34;:0.015686275437474251,&#34;g&#34;:0.23137255012989044,&#34;b&#34;:0.18039216101169586,&#34;a&#34;:1.0},&#34;position&#34;:1.0}],&#34;stopsVar&#34;:[],&#34;transform&#34;:{&#34;m00&#34;:4.0781131726772002e-13,&#34;m01&#34;:27.890544891357422,&#34;m02&#34;:-2.9452729225158691,&#34;m10&#34;:-27.890544891357422,&#34;m11&#34;:3.7624458128042437e-13,&#34;m12&#34;:25.009592056274414},&#34;opacity&#34;:1.0,&#34;blendMode&#34;:&#34;NORMAL&#34;,&#34;visible&#34;:true}"/>
<g clip-path="url(#paint1_angular_3273_13619_clip_path)" data-figma-skip-parse="true"><g transform="matrix(0 -0.0139453 0.0139453 0 11 11.0643)"><foreignObject x="-865.119" y="-865.119" width="1730.24" height="1730.24"><div xmlns="http://www.w3.org/1999/xhtml" style="background:conic-gradient(from 90deg,rgba(95, 220, 178, 1) 0deg,rgba(4, 59, 46, 1) 360deg);height:100%;width:100%;opacity:1"></div></foreignObject></g></g><path d="M6.89623 21.6612C7.34794 21.2095 7.34794 20.4771 6.89623 20.0254C6.44452 19.5737 5.71215 19.5737 5.26045 20.0254C4.80874 20.4771 4.80874 21.2095 5.26045 21.6612C5.71215 22.1129 6.44452 22.1129 6.89623 21.6612Z" data-figma-gradient-fill="{&#34;type&#34;:&#34;GRADIENT_ANGULAR&#34;,&#34;stops&#34;:[{&#34;color&#34;:{&#34;r&#34;:0.37254902720451355,&#34;g&#34;:0.86274510622024536,&#34;b&#34;:0.69803923368453979,&#34;a&#34;:1.0},&#34;position&#34;:0.0},{&#34;color&#34;:{&#34;r&#34;:0.015686275437474251,&#34;g&#34;:0.23137255012989044,&#34;b&#34;:0.18039216101169586,&#34;a&#34;:1.0},&#34;position&#34;:1.0}],&#34;stopsVar&#34;:[],&#34;transform&#34;:{&#34;m00&#34;:4.0781131726772002e-13,&#34;m01&#34;:27.890544891357422,&#34;m02&#34;:-2.9452729225158691,&#34;m10&#34;:-27.890544891357422,&#34;m11&#34;:3.7624458128042437e-13,&#34;m12&#34;:25.009592056274414},&#34;opacity&#34;:1.0,&#34;blendMode&#34;:&#34;NORMAL&#34;,&#34;visible&#34;:true}"/>
<g clip-path="url(#paint2_angular_3273_13619_clip_path)" data-figma-skip-parse="true"><g transform="matrix(0 -0.0139453 0.0139453 0 11 11.0643)"><foreignObject x="-865.119" y="-865.119" width="1730.24" height="1730.24"><div xmlns="http://www.w3.org/1999/xhtml" style="background:conic-gradient(from 90deg,rgba(95, 220, 178, 1) 0deg,rgba(4, 59, 46, 1) 360deg);height:100%;width:100%;opacity:1"></div></foreignObject></g></g><path d="M1.97456 6.89623C2.42627 6.44452 2.42627 5.71215 1.97456 5.26045C1.52285 4.80874 0.79049 4.80874 0.338782 5.26045C-0.112927 5.71215 -0.112927 6.44452 0.338782 6.89623C0.79049 7.34794 1.52285 7.34794 1.97456 6.89623Z" data-figma-gradient-fill="{&#34;type&#34;:&#34;GRADIENT_ANGULAR&#34;,&#34;stops&#34;:[{&#34;color&#34;:{&#34;r&#34;:0.37254902720451355,&#34;g&#34;:0.86274510622024536,&#34;b&#34;:0.69803923368453979,&#34;a&#34;:1.0},&#34;position&#34;:0.0},{&#34;color&#34;:{&#34;r&#34;:0.015686275437474251,&#34;g&#34;:0.23137255012989044,&#34;b&#34;:0.18039216101169586,&#34;a&#34;:1.0},&#34;position&#34;:1.0}],&#34;stopsVar&#34;:[],&#34;transform&#34;:{&#34;m00&#34;:4.0781131726772002e-13,&#34;m01&#34;:27.890544891357422,&#34;m02&#34;:-2.9452729225158691,&#34;m10&#34;:-27.890544891357422,&#34;m11&#34;:3.7624458128042437e-13,&#34;m12&#34;:25.009592056274414},&#34;opacity&#34;:1.0,&#34;blendMode&#34;:&#34;NORMAL&#34;,&#34;visible&#34;:true}"/>
<g clip-path="url(#paint3_angular_3273_13619_clip_path)" data-figma-skip-parse="true"><g transform="matrix(0 -0.0139453 0.0139453 0 11 11.0643)"><foreignObject x="-865.119" y="-865.119" width="1730.24" height="1730.24"><div xmlns="http://www.w3.org/1999/xhtml" style="background:conic-gradient(from 90deg,rgba(95, 220, 178, 1) 0deg,rgba(4, 59, 46, 1) 360deg);height:100%;width:100%;opacity:1"></div></foreignObject></g></g><path d="M7.53515 12.4568C8.33972 11.6522 8.33972 10.3478 7.53515 9.54319C6.73057 8.73861 5.4261 8.73861 4.62152 9.54319C3.81695 10.3478 3.81695 11.6522 4.62152 12.4568C5.4261 13.2614 6.73057 13.2614 7.53515 12.4568Z" data-figma-gradient-fill="{&#34;type&#34;:&#34;GRADIENT_ANGULAR&#34;,&#34;stops&#34;:[{&#34;color&#34;:{&#34;r&#34;:0.37254902720451355,&#34;g&#34;:0.86274510622024536,&#34;b&#34;:0.69803923368453979,&#34;a&#34;:1.0},&#34;position&#34;:0.0},{&#34;color&#34;:{&#34;r&#34;:0.015686275437474251,&#34;g&#34;:0.23137255012989044,&#34;b&#34;:0.18039216101169586,&#34;a&#34;:1.0},&#34;position&#34;:1.0}],&#34;stopsVar&#34;:[],&#34;transform&#34;:{&#34;m00&#34;:4.0781131726772002e-13,&#34;m01&#34;:27.890544891357422,&#34;m02&#34;:-2.9452729225158691,&#34;m10&#34;:-27.890544891357422,&#34;m11&#34;:3.7624458128042437e-13,&#34;m12&#34;:25.009592056274414},&#34;opacity&#34;:1.0,&#34;blendMode&#34;:&#34;NORMAL&#34;,&#34;visible&#34;:true}"/>
<g clip-path="url(#paint4_angular_3273_13619_clip_path)" data-figma-skip-parse="true"><g transform="matrix(0 -0.0139453 0.0139453 0 11 11.0643)"><foreignObject x="-865.119" y="-865.119" width="1730.24" height="1730.24"><div xmlns="http://www.w3.org/1999/xhtml" style="background:conic-gradient(from 90deg,rgba(95, 220, 178, 1) 0deg,rgba(4, 59, 46, 1) 360deg);height:100%;width:100%;opacity:1"></div></foreignObject></g></g><path d="M12.4568 17.3785C13.2614 16.5739 13.2614 15.2694 12.4568 14.4649C11.6522 13.6603 10.3478 13.6603 9.54319 14.4649C8.73861 15.2694 8.73861 16.5739 9.54319 17.3785C10.3478 18.1831 11.6522 18.1831 12.4568 17.3785Z" data-figma-gradient-fill="{&#34;type&#34;:&#34;GRADIENT_ANGULAR&#34;,&#34;stops&#34;:[{&#34;color&#34;:{&#34;r&#34;:0.37254902720451355,&#34;g&#34;:0.86274510622024536,&#34;b&#34;:0.69803923368453979,&#34;a&#34;:1.0},&#34;position&#34;:0.0},{&#34;color&#34;:{&#34;r&#34;:0.015686275437474251,&#34;g&#34;:0.23137255012989044,&#34;b&#34;:0.18039216101169586,&#34;a&#34;:1.0},&#34;position&#34;:1.0}],&#34;stopsVar&#34;:[],&#34;transform&#34;:{&#34;m00&#34;:4.0781131726772002e-13,&#34;m01&#34;:27.890544891357422,&#34;m02&#34;:-2.9452729225158691,&#34;m10&#34;:-27.890544891357422,&#34;m11&#34;:3.7624458128042437e-13,&#34;m12&#34;:25.009592056274414},&#34;opacity&#34;:1.0,&#34;blendMode&#34;:&#34;NORMAL&#34;,&#34;visible&#34;:true}"/>
<g clip-path="url(#paint5_angular_3273_13619_clip_path)" data-figma-skip-parse="true"><g transform="matrix(0 -0.0139453 0.0139453 0 11 11.0643)"><foreignObject x="-865.119" y="-865.119" width="1730.24" height="1730.24"><div xmlns="http://www.w3.org/1999/xhtml" style="background:conic-gradient(from 90deg,rgba(95, 220, 178, 1) 0deg,rgba(4, 59, 46, 1) 360deg);height:100%;width:100%;opacity:1"></div></foreignObject></g></g><path d="M16.7396 21.6612C17.1913 21.2095 17.1913 20.4771 16.7396 20.0254C16.2878 19.5737 15.5555 19.5737 15.1038 20.0254C14.6521 20.4771 14.6521 21.2095 15.1038 21.6612C15.5555 22.1129 16.2878 22.1129 16.7396 21.6612Z" data-figma-gradient-fill="{&#34;type&#34;:&#34;GRADIENT_ANGULAR&#34;,&#34;stops&#34;:[{&#34;color&#34;:{&#34;r&#34;:0.37254902720451355,&#34;g&#34;:0.86274510622024536,&#34;b&#34;:0.69803923368453979,&#34;a&#34;:1.0},&#34;position&#34;:0.0},{&#34;color&#34;:{&#34;r&#34;:0.015686275437474251,&#34;g&#34;:0.23137255012989044,&#34;b&#34;:0.18039216101169586,&#34;a&#34;:1.0},&#34;position&#34;:1.0}],&#34;stopsVar&#34;:[],&#34;transform&#34;:{&#34;m00&#34;:4.0781131726772002e-13,&#34;m01&#34;:27.890544891357422,&#34;m02&#34;:-2.9452729225158691,&#34;m10&#34;:-27.890544891357422,&#34;m11&#34;:3.7624458128042437e-13,&#34;m12&#34;:25.009592056274414},&#34;opacity&#34;:1.0,&#34;blendMode&#34;:&#34;NORMAL&#34;,&#34;visible&#34;:true}"/>
<g clip-path="url(#paint6_angular_3273_13619_clip_path)" data-figma-skip-parse="true"><g transform="matrix(0 -0.0139453 0.0139453 0 11 11.0643)"><foreignObject x="-865.119" y="-865.119" width="1730.24" height="1730.24"><div xmlns="http://www.w3.org/1999/xhtml" style="background:conic-gradient(from 90deg,rgba(95, 220, 178, 1) 0deg,rgba(4, 59, 46, 1) 360deg);height:100%;width:100%;opacity:1"></div></foreignObject></g></g><path d="M6.89623 1.97456C7.34794 1.52285 7.34794 0.79049 6.89623 0.338782C6.44452 -0.112927 5.71215 -0.112927 5.26045 0.338782C4.80874 0.79049 4.80874 1.52285 5.26045 1.97456C5.71215 2.42627 6.44452 2.42627 6.89623 1.97456Z" data-figma-gradient-fill="{&#34;type&#34;:&#34;GRADIENT_ANGULAR&#34;,&#34;stops&#34;:[{&#34;color&#34;:{&#34;r&#34;:0.37254902720451355,&#34;g&#34;:0.86274510622024536,&#34;b&#34;:0.69803923368453979,&#34;a&#34;:1.0},&#34;position&#34;:0.0},{&#34;color&#34;:{&#34;r&#34;:0.015686275437474251,&#34;g&#34;:0.23137255012989044,&#34;b&#34;:0.18039216101169586,&#34;a&#34;:1.0},&#34;position&#34;:1.0}],&#34;stopsVar&#34;:[],&#34;transform&#34;:{&#34;m00&#34;:4.0781131726772002e-13,&#34;m01&#34;:27.890544891357422,&#34;m02&#34;:-2.9452729225158691,&#34;m10&#34;:-27.890544891357422,&#34;m11&#34;:3.7624458128042437e-13,&#34;m12&#34;:25.009592056274414},&#34;opacity&#34;:1.0,&#34;blendMode&#34;:&#34;NORMAL&#34;,&#34;visible&#34;:true}"/>
<g clip-path="url(#paint7_angular_3273_13619_clip_path)" data-figma-skip-parse="true"><g transform="matrix(0 -0.0139453 0.0139453 0 11 11.0643)"><foreignObject x="-865.119" y="-865.119" width="1730.24" height="1730.24"><div xmlns="http://www.w3.org/1999/xhtml" style="background:conic-gradient(from 90deg,rgba(95, 220, 178, 1) 0deg,rgba(4, 59, 46, 1) 360deg);height:100%;width:100%;opacity:1"></div></foreignObject></g></g><path d="M12.4568 7.53515C13.2614 6.73057 13.2614 5.4261 12.4568 4.62152C11.6522 3.81695 10.3478 3.81695 9.54319 4.62152C8.73861 5.4261 8.73861 6.73057 9.54319 7.53515C10.3478 8.33972 11.6522 8.33972 12.4568 7.53515Z" data-figma-gradient-fill="{&#34;type&#34;:&#34;GRADIENT_ANGULAR&#34;,&#34;stops&#34;:[{&#34;color&#34;:{&#34;r&#34;:0.37254902720451355,&#34;g&#34;:0.86274510622024536,&#34;b&#34;:0.69803923368453979,&#34;a&#34;:1.0},&#34;position&#34;:0.0},{&#34;color&#34;:{&#34;r&#34;:0.015686275437474251,&#34;g&#34;:0.23137255012989044,&#34;b&#34;:0.18039216101169586,&#34;a&#34;:1.0},&#34;position&#34;:1.0}],&#34;stopsVar&#34;:[],&#34;transform&#34;:{&#34;m00&#34;:4.0781131726772002e-13,&#34;m01&#34;:27.890544891357422,&#34;m02&#34;:-2.9452729225158691,&#34;m10&#34;:-27.890544891357422,&#34;m11&#34;:3.7624458128042437e-13,&#34;m12&#34;:25.009592056274414},&#34;opacity&#34;:1.0,&#34;blendMode&#34;:&#34;NORMAL&#34;,&#34;visible&#34;:true}"/>
<g clip-path="url(#paint8_angular_3273_13619_clip_path)" data-figma-skip-parse="true"><g transform="matrix(0 -0.0139453 0.0139453 0 11 11.0643)"><foreignObject x="-865.119" y="-865.119" width="1730.24" height="1730.24"><div xmlns="http://www.w3.org/1999/xhtml" style="background:conic-gradient(from 90deg,rgba(95, 220, 178, 1) 0deg,rgba(4, 59, 46, 1) 360deg);height:100%;width:100%;opacity:1"></div></foreignObject></g></g><path d="M17.3785 12.4568C18.1831 11.6522 18.1831 10.3478 17.3785 9.54319C16.5739 8.73861 15.2694 8.73861 14.4649 9.54319C13.6603 10.3478 13.6603 11.6522 14.4649 12.4568C15.2694 13.2614 16.5739 13.2614 17.3785 12.4568Z" data-figma-gradient-fill="{&#34;type&#34;:&#34;GRADIENT_ANGULAR&#34;,&#34;stops&#34;:[{&#34;color&#34;:{&#34;r&#34;:0.37254902720451355,&#34;g&#34;:0.86274510622024536,&#34;b&#34;:0.69803923368453979,&#34;a&#34;:1.0},&#34;position&#34;:0.0},{&#34;color&#34;:{&#34;r&#34;:0.015686275437474251,&#34;g&#34;:0.23137255012989044,&#34;b&#34;:0.18039216101169586,&#34;a&#34;:1.0},&#34;position&#34;:1.0}],&#34;stopsVar&#34;:[],&#34;transform&#34;:{&#34;m00&#34;:4.0781131726772002e-13,&#34;m01&#34;:27.890544891357422,&#34;m02&#34;:-2.9452729225158691,&#34;m10&#34;:-27.890544891357422,&#34;m11&#34;:3.7624458128042437e-13,&#34;m12&#34;:25.009592056274414},&#34;opacity&#34;:1.0,&#34;blendMode&#34;:&#34;NORMAL&#34;,&#34;visible&#34;:true}"/>
<g clip-path="url(#paint9_angular_3273_13619_clip_path)" data-figma-skip-parse="true"><g transform="matrix(0 -0.0139453 0.0139453 0 11 11.0643)"><foreignObject x="-865.119" y="-865.119" width="1730.24" height="1730.24"><div xmlns="http://www.w3.org/1999/xhtml" style="background:conic-gradient(from 90deg,rgba(95, 220, 178, 1) 0deg,rgba(4, 59, 46, 1) 360deg);height:100%;width:100%;opacity:1"></div></foreignObject></g></g><path d="M21.6612 16.7396C22.1129 16.2878 22.1129 15.5555 21.6612 15.1038C21.2095 14.6521 20.4771 14.6521 20.0254 15.1038C19.5737 15.5555 19.5737 16.2878 20.0254 16.7396C20.4771 17.1913 21.2095 17.1913 21.6612 16.7396Z" data-figma-gradient-fill="{&#34;type&#34;:&#34;GRADIENT_ANGULAR&#34;,&#34;stops&#34;:[{&#34;color&#34;:{&#34;r&#34;:0.37254902720451355,&#34;g&#34;:0.86274510622024536,&#34;b&#34;:0.69803923368453979,&#34;a&#34;:1.0},&#34;position&#34;:0.0},{&#34;color&#34;:{&#34;r&#34;:0.015686275437474251,&#34;g&#34;:0.23137255012989044,&#34;b&#34;:0.18039216101169586,&#34;a&#34;:1.0},&#34;position&#34;:1.0}],&#34;stopsVar&#34;:[],&#34;transform&#34;:{&#34;m00&#34;:4.0781131726772002e-13,&#34;m01&#34;:27.890544891357422,&#34;m02&#34;:-2.9452729225158691,&#34;m10&#34;:-27.890544891357422,&#34;m11&#34;:3.7624458128042437e-13,&#34;m12&#34;:25.009592056274414},&#34;opacity&#34;:1.0,&#34;blendMode&#34;:&#34;NORMAL&#34;,&#34;visible&#34;:true}"/>
<g clip-path="url(#paint10_angular_3273_13619_clip_path)" data-figma-skip-parse="true"><g transform="matrix(0 -0.0139453 0.0139453 0 11 11.0643)"><foreignObject x="-865.119" y="-865.119" width="1730.24" height="1730.24"><div xmlns="http://www.w3.org/1999/xhtml" style="background:conic-gradient(from 90deg,rgba(95, 220, 178, 1) 0deg,rgba(4, 59, 46, 1) 360deg);height:100%;width:100%;opacity:1"></div></foreignObject></g></g><path d="M16.7396 1.97456C17.1913 1.52285 17.1913 0.79049 16.7396 0.338782C16.2878 -0.112927 15.5555 -0.112927 15.1038 0.338782C14.6521 0.79049 14.6521 1.52285 15.1038 1.97456C15.5555 2.42627 16.2878 2.42627 16.7396 1.97456Z" data-figma-gradient-fill="{&#34;type&#34;:&#34;GRADIENT_ANGULAR&#34;,&#34;stops&#34;:[{&#34;color&#34;:{&#34;r&#34;:0.37254902720451355,&#34;g&#34;:0.86274510622024536,&#34;b&#34;:0.69803923368453979,&#34;a&#34;:1.0},&#34;position&#34;:0.0},{&#34;color&#34;:{&#34;r&#34;:0.015686275437474251,&#34;g&#34;:0.23137255012989044,&#34;b&#34;:0.18039216101169586,&#34;a&#34;:1.0},&#34;position&#34;:1.0}],&#34;stopsVar&#34;:[],&#34;transform&#34;:{&#34;m00&#34;:4.0781131726772002e-13,&#34;m01&#34;:27.890544891357422,&#34;m02&#34;:-2.9452729225158691,&#34;m10&#34;:-27.890544891357422,&#34;m11&#34;:3.7624458128042437e-13,&#34;m12&#34;:25.009592056274414},&#34;opacity&#34;:1.0,&#34;blendMode&#34;:&#34;NORMAL&#34;,&#34;visible&#34;:true}"/>
<g clip-path="url(#paint11_angular_3273_13619_clip_path)" data-figma-skip-parse="true"><g transform="matrix(0 -0.0139453 0.0139453 0 11 11.0643)"><foreignObject x="-865.119" y="-865.119" width="1730.24" height="1730.24"><div xmlns="http://www.w3.org/1999/xhtml" style="background:conic-gradient(from 90deg,rgba(95, 220, 178, 1) 0deg,rgba(4, 59, 46, 1) 360deg);height:100%;width:100%;opacity:1"></div></foreignObject></g></g><path d="M21.6612 6.89623C22.1129 6.44452 22.1129 5.71215 21.6612 5.26045C21.2095 4.80874 20.4771 4.80874 20.0254 5.26045C19.5737 5.71215 19.5737 6.44452 20.0254 6.89623C20.4771 7.34794 21.2095 7.34794 21.6612 6.89623Z" data-figma-gradient-fill="{&#34;type&#34;:&#34;GRADIENT_ANGULAR&#34;,&#34;stops&#34;:[{&#34;color&#34;:{&#34;r&#34;:0.37254902720451355,&#34;g&#34;:0.86274510622024536,&#34;b&#34;:0.69803923368453979,&#34;a&#34;:1.0},&#34;position&#34;:0.0},{&#34;color&#34;:{&#34;r&#34;:0.015686275437474251,&#34;g&#34;:0.23137255012989044,&#34;b&#34;:0.18039216101169586,&#34;a&#34;:1.0},&#34;position&#34;:1.0}],&#34;stopsVar&#34;:[],&#34;transform&#34;:{&#34;m00&#34;:4.0781131726772002e-13,&#34;m01&#34;:27.890544891357422,&#34;m02&#34;:-2.9452729225158691,&#34;m10&#34;:-27.890544891357422,&#34;m11&#34;:3.7624458128042437e-13,&#34;m12&#34;:25.009592056274414},&#34;opacity&#34;:1.0,&#34;blendMode&#34;:&#34;NORMAL&#34;,&#34;visible&#34;:true}"/>
<defs>
<clipPath id="paint0_angular_3273_13619_clip_path"><path d="M1.97456 16.7396C2.42627 16.2878 2.42627 15.5555 1.97456 15.1038C1.52285 14.6521 0.79049 14.6521 0.338782 15.1038C-0.112927 15.5555 -0.112927 16.2878 0.338782 16.7396C0.79049 17.1913 1.52285 17.1913 1.97456 16.7396Z"/></clipPath><clipPath id="paint1_angular_3273_13619_clip_path"><path d="M6.89623 21.6612C7.34794 21.2095 7.34794 20.4771 6.89623 20.0254C6.44452 19.5737 5.71215 19.5737 5.26045 20.0254C4.80874 20.4771 4.80874 21.2095 5.26045 21.6612C5.71215 22.1129 6.44452 22.1129 6.89623 21.6612Z"/></clipPath><clipPath id="paint2_angular_3273_13619_clip_path"><path d="M1.97456 6.89623C2.42627 6.44452 2.42627 5.71215 1.97456 5.26045C1.52285 4.80874 0.79049 4.80874 0.338782 5.26045C-0.112927 5.71215 -0.112927 6.44452 0.338782 6.89623C0.79049 7.34794 1.52285 7.34794 1.97456 6.89623Z"/></clipPath><clipPath id="paint3_angular_3273_13619_clip_path"><path d="M7.53515 12.4568C8.33972 11.6522 8.33972 10.3478 7.53515 9.54319C6.73057 8.73861 5.4261 8.73861 4.62152 9.54319C3.81695 10.3478 3.81695 11.6522 4.62152 12.4568C5.4261 13.2614 6.73057 13.2614 7.53515 12.4568Z"/></clipPath><clipPath id="paint4_angular_3273_13619_clip_path"><path d="M12.4568 17.3785C13.2614 16.5739 13.2614 15.2694 12.4568 14.4649C11.6522 13.6603 10.3478 13.6603 9.54319 14.4649C8.73861 15.2694 8.73861 16.5739 9.54319 17.3785C10.3478 18.1831 11.6522 18.1831 12.4568 17.3785Z"/></clipPath><clipPath id="paint5_angular_3273_13619_clip_path"><path d="M16.7396 21.6612C17.1913 21.2095 17.1913 20.4771 16.7396 20.0254C16.2878 19.5737 15.5555 19.5737 15.1038 20.0254C14.6521 20.4771 14.6521 21.2095 15.1038 21.6612C15.5555 22.1129 16.2878 22.1129 16.7396 21.6612Z"/></clipPath><clipPath id="paint6_angular_3273_13619_clip_path"><path d="M6.89623 1.97456C7.34794 1.52285 7.34794 0.79049 6.89623 0.338782C6.44452 -0.112927 5.71215 -0.112927 5.26045 0.338782C4.80874 0.79049 4.80874 1.52285 5.26045 1.97456C5.71215 2.42627 6.44452 2.42627 6.89623 1.97456Z"/></clipPath><clipPath id="paint7_angular_3273_13619_clip_path"><path d="M12.4568 7.53515C13.2614 6.73057 13.2614 5.4261 12.4568 4.62152C11.6522 3.81695 10.3478 3.81695 9.54319 4.62152C8.73861 5.4261 8.73861 6.73057 9.54319 7.53515C10.3478 8.33972 11.6522 8.33972 12.4568 7.53515Z"/></clipPath><clipPath id="paint8_angular_3273_13619_clip_path"><path d="M17.3785 12.4568C18.1831 11.6522 18.1831 10.3478 17.3785 9.54319C16.5739 8.73861 15.2694 8.73861 14.4649 9.54319C13.6603 10.3478 13.6603 11.6522 14.4649 12.4568C15.2694 13.2614 16.5739 13.2614 17.3785 12.4568Z"/></clipPath><clipPath id="paint9_angular_3273_13619_clip_path"><path d="M21.6612 16.7396C22.1129 16.2878 22.1129 15.5555 21.6612 15.1038C21.2095 14.6521 20.4771 14.6521 20.0254 15.1038C19.5737 15.5555 19.5737 16.2878 20.0254 16.7396C20.4771 17.1913 21.2095 17.1913 21.6612 16.7396Z"/></clipPath><clipPath id="paint10_angular_3273_13619_clip_path"><path d="M16.7396 1.97456C17.1913 1.52285 17.1913 0.79049 16.7396 0.338782C16.2878 -0.112927 15.5555 -0.112927 15.1038 0.338782C14.6521 0.79049 14.6521 1.52285 15.1038 1.97456C15.5555 2.42627 16.2878 2.42627 16.7396 1.97456Z"/></clipPath><clipPath id="paint11_angular_3273_13619_clip_path"><path d="M21.6612 6.89623C22.1129 6.44452 22.1129 5.71215 21.6612 5.26045C21.2095 4.80874 20.4771 4.80874 20.0254 5.26045C19.5737 5.71215 19.5737 6.44452 20.0254 6.89623C20.4771 7.34794 21.2095 7.34794 21.6612 6.89623Z"/></clipPath></defs>
</svg>
