<svg width="237" height="237" viewBox="0 0 237 237" fill="none" xmlns="http://www.w3.org/2000/svg">
<path d="M217.354 169.77C216.676 169.091 216.676 167.991 217.354 167.313C218.033 166.635 219.132 166.635 219.811 167.313C220.489 167.991 220.489 169.091 219.811 169.77C219.132 170.448 218.033 170.448 217.354 169.77Z" fill="#5FDCB2"/>
<path d="M200.439 186.685C199.631 185.877 199.631 184.567 200.439 183.758C201.247 182.95 202.557 182.95 203.365 183.758C204.174 184.567 204.174 185.877 203.365 186.685C202.557 187.493 201.247 187.493 200.439 186.685Z" fill="#5FDCB2"/>
<path d="M183.758 203.365C182.95 202.557 182.95 201.247 183.758 200.439C184.567 199.631 185.877 199.631 186.685 200.439C187.493 201.247 187.493 202.557 186.685 203.365C185.877 204.174 184.567 204.174 183.758 203.365Z" fill="#5FDCB2"/>
<path d="M167.313 219.811C166.635 219.132 166.635 218.033 167.313 217.354C167.991 216.676 169.091 216.676 169.77 217.354C170.448 218.033 170.448 219.132 169.77 219.811C169.091 220.489 167.991 220.489 167.313 219.811Z" fill="#5FDCB2"/>
<path d="M234.035 119.728C233.356 119.05 233.356 117.95 234.035 117.272C234.713 116.593 235.813 116.593 236.491 117.272C237.17 117.95 237.17 119.05 236.491 119.728C235.813 120.407 234.713 120.407 234.035 119.728Z" fill="#5FDCB2"/>
<path d="M216.884 136.879C215.946 135.941 215.946 134.42 216.884 133.482C217.822 132.544 219.343 132.544 220.281 133.482C221.219 134.42 221.219 135.941 220.281 136.879C219.343 137.817 217.822 137.817 216.884 136.879Z" fill="#5FDCB2"/>
<path d="M199.741 154.022C198.548 152.828 198.548 150.893 199.741 149.7C200.935 148.507 202.87 148.507 204.063 149.7C205.256 150.893 205.256 152.828 204.063 154.022C202.87 155.215 200.935 155.215 199.741 154.022Z" fill="#5FDCB2"/>
<path d="M182.598 171.165C181.149 169.716 181.149 167.367 182.598 165.918C184.047 164.469 186.396 164.469 187.845 165.918C189.294 167.367 189.294 169.716 187.845 171.165C186.396 172.613 184.047 172.613 182.598 171.165Z" fill="#5FDCB2"/>
<path d="M165.918 187.845C164.469 186.396 164.469 184.047 165.918 182.598C167.367 181.149 169.716 181.149 171.165 182.598C172.613 184.047 172.613 186.396 171.165 187.845C169.716 189.294 167.367 189.294 165.918 187.845Z" fill="#5FDCB2"/>
<path d="M149.7 204.063C148.507 202.87 148.507 200.935 149.7 199.741C150.893 198.548 152.828 198.548 154.022 199.741C155.215 200.935 155.215 202.87 154.022 204.063C152.828 205.256 150.893 205.256 149.7 204.063Z" fill="#5FDCB2"/>
<path d="M133.482 220.281C132.544 219.343 132.544 217.822 133.482 216.884C134.42 215.946 135.941 215.946 136.879 216.884C137.817 217.822 137.817 219.343 136.879 220.281C135.941 221.219 134.42 221.219 133.482 220.281Z" fill="#5FDCB2"/>
<path d="M117.272 236.491C116.593 235.813 116.593 234.713 117.272 234.035C117.95 233.356 119.05 233.356 119.728 234.035C120.407 234.713 120.407 235.813 119.728 236.491C119.05 237.17 117.95 237.17 117.272 236.491Z" fill="#5FDCB2"/>
<path d="M216.884 103.518C215.946 102.58 215.946 101.059 216.884 100.121C217.822 99.1832 219.343 99.1832 220.281 100.121C221.219 101.059 221.219 102.58 220.281 103.518C219.343 104.456 217.822 104.456 216.884 103.518Z" fill="#5FDCB2"/>
<path d="M199.514 120.888C198.195 119.569 198.195 117.431 199.514 116.112C200.833 114.793 202.971 114.793 204.29 116.112C205.609 117.431 205.609 119.569 204.29 120.888C202.971 122.207 200.833 122.207 199.514 120.888Z" fill="#5FDCB2"/>
<path d="M182.136 138.266C180.432 136.562 180.432 133.799 182.136 132.095C183.84 130.39 186.603 130.39 188.308 132.095C190.012 133.799 190.012 136.562 188.308 138.266C186.603 139.971 183.84 139.971 182.136 138.266Z" fill="#5FDCB2"/>
<path d="M164.758 155.644C162.668 153.555 162.668 150.167 164.758 148.077C166.847 145.988 170.235 145.988 172.325 148.077C174.414 150.167 174.414 153.555 172.325 155.644C170.235 157.734 166.847 157.734 164.758 155.644Z" fill="#5FDCB2"/>
<path d="M148.077 172.325C145.988 170.235 145.988 166.847 148.077 164.758C150.167 162.668 153.555 162.668 155.644 164.758C157.734 166.847 157.734 170.235 155.644 172.325C153.555 174.414 150.167 174.414 148.077 172.325Z" fill="#5FDCB2"/>
<path d="M132.095 188.308C130.39 186.603 130.39 183.84 132.095 182.136C133.799 180.432 136.562 180.432 138.266 182.136C139.971 183.84 139.971 186.603 138.266 188.308C136.562 190.012 133.799 190.012 132.095 188.308Z" fill="#5FDCB2"/>
<path d="M116.112 204.29C114.793 202.971 114.793 200.833 116.112 199.514C117.431 198.195 119.569 198.195 120.888 199.514C122.207 200.833 122.207 202.971 120.888 204.29C119.569 205.609 117.431 205.609 116.112 204.29Z" fill="#5FDCB2"/>
<path d="M100.121 220.281C99.1832 219.343 99.1832 217.822 100.121 216.884C101.059 215.946 102.58 215.946 103.518 216.884C104.456 217.822 104.456 219.343 103.518 220.281C102.58 221.219 101.059 221.219 100.121 220.281Z" fill="#5FDCB2"/>
<path d="M217.354 69.687C216.676 69.0087 216.676 67.9088 217.354 67.2304C218.033 66.5521 219.132 66.5521 219.811 67.2305C220.489 67.9088 220.489 69.0087 219.811 69.687C219.132 70.3654 218.033 70.3654 217.354 69.687Z" fill="#5FDCB2"/>
<path d="M199.741 87.3C198.548 86.1066 198.548 84.1717 199.741 82.9783C200.935 81.7849 202.87 81.7849 204.063 82.9783C205.256 84.1717 205.256 86.1066 204.063 87.3C202.87 88.4934 200.935 88.4934 199.741 87.3Z" fill="#5FDCB2"/>
<path d="M182.136 104.905C180.432 103.201 180.432 100.438 182.136 98.7337C183.84 97.0294 186.603 97.0294 188.308 98.7337C190.012 100.438 190.012 103.201 188.308 104.905C186.603 106.61 183.84 106.61 182.136 104.905Z" fill="#5FDCB2"/>
<path d="M164.523 122.518C162.303 120.299 162.303 116.701 164.523 114.482C166.742 112.262 170.34 112.262 172.56 114.482C174.779 116.701 174.779 120.299 172.56 122.518C170.34 124.738 166.742 124.738 164.523 122.518Z" fill="#5FDCB2"/>
<path d="M146.917 140.124C144.187 137.394 144.187 132.967 146.917 130.237C149.648 127.507 154.074 127.507 156.804 130.237C159.535 132.967 159.535 137.394 156.804 140.124C154.074 142.854 149.648 142.854 146.917 140.124Z" fill="#5FDCB2"/>
<path d="M130.237 156.804C127.507 154.074 127.507 149.648 130.237 146.917C132.967 144.187 137.394 144.187 140.124 146.917C142.854 149.648 142.854 154.074 140.124 156.804C137.394 159.535 132.967 159.535 130.237 156.804Z" fill="#5FDCB2"/>
<path d="M114.482 172.56C112.262 170.34 112.262 166.742 114.482 164.523C116.701 162.303 120.299 162.303 122.518 164.523C124.738 166.742 124.738 170.34 122.518 172.56C120.299 174.779 116.701 174.779 114.482 172.56Z" fill="#5FDCB2"/>
<path d="M98.7337 188.308C97.0294 186.603 97.0294 183.84 98.7337 182.136C100.438 180.432 103.201 180.432 104.905 182.136C106.61 183.84 106.61 186.603 104.905 188.308C103.201 190.012 100.438 190.012 98.7337 188.308Z" fill="#5FDCB2"/>
<path d="M82.9783 204.063C81.7849 202.87 81.7849 200.935 82.9783 199.741C84.1717 198.548 86.1066 198.548 87.3 199.741C88.4935 200.935 88.4935 202.87 87.3 204.063C86.1066 205.256 84.1717 205.256 82.9783 204.063Z" fill="#5FDCB2"/>
<path d="M67.2305 219.811C66.5521 219.132 66.5521 218.033 67.2305 217.354C67.9088 216.676 69.0087 216.676 69.687 217.354C70.3654 218.033 70.3654 219.132 69.687 219.811C69.0087 220.489 67.9088 220.489 67.2305 219.811Z" fill="#5FDCB2"/>
<path d="M200.439 53.2416C199.631 52.4335 199.631 51.1232 200.439 50.315C201.247 49.5068 202.557 49.5068 203.365 50.315C204.174 51.1232 204.174 52.4335 203.365 53.2416C202.557 54.0498 201.247 54.0498 200.439 53.2416Z" fill="#5FDCB2"/>
<path d="M182.598 71.0821C181.149 69.6333 181.149 67.2842 182.598 65.8354C184.047 64.3865 186.396 64.3865 187.845 65.8354C189.294 67.2842 189.294 69.6333 187.845 71.0821C186.396 72.531 184.047 72.531 182.598 71.0821Z" fill="#5FDCB2"/>
<path d="M164.758 88.9226C162.668 86.8331 162.668 83.4453 164.758 81.3557C166.847 79.2662 170.235 79.2662 172.325 81.3557C174.414 83.4453 174.414 86.8331 172.325 88.9226C170.235 91.0121 166.847 91.0121 164.758 88.9226Z" fill="#5FDCB2"/>
<path d="M146.917 106.763C144.187 104.033 144.187 99.6063 146.917 96.8761C149.648 94.1459 154.074 94.1459 156.804 96.8761C159.535 99.6063 159.535 104.033 156.804 106.763C154.074 109.493 149.648 109.493 146.917 106.763Z" fill="#5FDCB2"/>
<path d="M129.077 124.604C125.706 121.233 125.706 115.767 129.077 112.396C132.448 109.026 137.913 109.026 141.284 112.396C144.655 115.767 144.655 121.233 141.284 124.604C137.913 127.974 132.448 127.974 129.077 124.604Z" fill="#5FDCB2"/>
<path d="M112.396 141.284C109.026 137.913 109.026 132.448 112.396 129.077C115.767 125.706 121.233 125.706 124.604 129.077C127.974 132.448 127.974 137.913 124.604 141.284C121.233 144.655 115.767 144.655 112.396 141.284Z" fill="#5FDCB2"/>
<path d="M96.8761 156.804C94.1459 154.074 94.1459 149.648 96.8761 146.917C99.6063 144.187 104.033 144.187 106.763 146.917C109.493 149.648 109.493 154.074 106.763 156.804C104.033 159.535 99.6063 159.535 96.8761 156.804Z" fill="#5FDCB2"/>
<path d="M81.3557 172.325C79.2662 170.235 79.2662 166.847 81.3557 164.758C83.4453 162.668 86.833 162.668 88.9226 164.758C91.0121 166.847 91.0121 170.235 88.9226 172.325C86.833 174.414 83.4453 174.414 81.3557 172.325Z" fill="#5FDCB2"/>
<path d="M65.8354 187.845C64.3865 186.396 64.3865 184.047 65.8354 182.598C67.2842 181.149 69.6333 181.149 71.0821 182.598C72.531 184.047 72.5309 186.396 71.0821 187.845C69.6332 189.294 67.2842 189.294 65.8354 187.845Z" fill="#5FDCB2"/>
<path d="M50.315 203.365C49.5068 202.557 49.5068 201.247 50.315 200.439C51.1232 199.631 52.4335 199.631 53.2416 200.439C54.0498 201.247 54.0498 202.557 53.2416 203.365C52.4335 204.174 51.1232 204.174 50.315 203.365Z" fill="#5FDCB2"/>
<path d="M183.758 36.5612C182.95 35.753 182.95 34.4427 183.758 33.6346C184.567 32.8264 185.877 32.8264 186.685 33.6346C187.493 34.4427 187.493 35.753 186.685 36.5612C185.877 37.3694 184.567 37.3694 183.758 36.5612Z" fill="#5FDCB2"/>
<path d="M165.918 54.4017C164.469 52.9528 164.469 50.6038 165.918 49.1549C167.367 47.7061 169.716 47.7061 171.165 49.1549C172.613 50.6038 172.613 52.9528 171.165 54.4017C169.716 55.8505 167.367 55.8505 165.918 54.4017Z" fill="#5FDCB2"/>
<path d="M148.077 72.2422C145.988 70.1526 145.988 66.7648 148.077 64.6753C150.167 62.5858 153.555 62.5858 155.644 64.6753C157.734 66.7648 157.734 70.1526 155.644 72.2422C153.555 74.3317 150.167 74.3317 148.077 72.2422Z" fill="#5FDCB2"/>
<path d="M130.237 90.0826C127.507 87.3524 127.507 82.9259 130.237 80.1957C132.967 77.4655 137.394 77.4655 140.124 80.1957C142.854 82.9259 142.854 87.3524 140.124 90.0826C137.394 92.8128 132.967 92.8128 130.237 90.0826Z" fill="#5FDCB2"/>
<path d="M112.396 107.923C109.026 104.552 109.026 99.0869 112.396 95.7161C115.767 92.3452 121.233 92.3452 124.604 95.7161C127.974 99.0869 127.974 104.552 124.604 107.923C121.233 111.294 115.767 111.294 112.396 107.923Z" fill="#5FDCB2"/>
<path d="M95.716 124.604C92.3452 121.233 92.3452 115.767 95.716 112.396C99.0869 109.026 104.552 109.026 107.923 112.396C111.294 115.767 111.294 121.233 107.923 124.604C104.552 127.974 99.0869 127.974 95.716 124.604Z" fill="#5FDCB2"/>
<path d="M80.1957 140.124C77.4655 137.394 77.4655 132.967 80.1957 130.237C82.9259 127.507 87.3524 127.507 90.0826 130.237C92.8128 132.967 92.8128 137.394 90.0826 140.124C87.3524 142.854 82.9259 142.854 80.1957 140.124Z" fill="#5FDCB2"/>
<path d="M64.6753 155.644C62.5858 153.555 62.5858 150.167 64.6753 148.077C66.7648 145.988 70.1526 145.988 72.2422 148.077C74.3317 150.167 74.3317 153.555 72.2422 155.644C70.1526 157.734 66.7648 157.734 64.6753 155.644Z" fill="#5FDCB2"/>
<path d="M49.1549 171.165C47.7061 169.716 47.7061 167.367 49.1549 165.918C50.6038 164.469 52.9528 164.469 54.4017 165.918C55.8505 167.367 55.8505 169.716 54.4017 171.165C52.9528 172.613 50.6038 172.613 49.1549 171.165Z" fill="#5FDCB2"/>
<path d="M33.6346 186.685C32.8264 185.877 32.8264 184.567 33.6346 183.758C34.4427 182.95 35.753 182.95 36.5612 183.758C37.3694 184.567 37.3694 185.877 36.5612 186.685C35.753 187.493 34.4427 187.493 33.6346 186.685Z" fill="#5FDCB2"/>
<path d="M167.313 19.6458C166.635 18.9674 166.635 17.8676 167.313 17.1892C167.991 16.5108 169.091 16.5108 169.77 17.1892C170.448 17.8676 170.448 18.9674 169.77 19.6458C169.091 20.3241 167.991 20.3241 167.313 19.6458Z" fill="#5FDCB2"/>
<path d="M149.7 37.2588C148.507 36.0654 148.507 34.1304 149.7 32.937C150.893 31.7436 152.828 31.7436 154.022 32.937C155.215 34.1304 155.215 36.0654 154.022 37.2588C152.828 38.4522 150.893 38.4522 149.7 37.2588Z" fill="#5FDCB2"/>
<path d="M132.095 54.8642C130.39 53.1599 130.39 50.3967 132.095 48.6924C133.799 46.9882 136.562 46.9882 138.266 48.6924C139.971 50.3967 139.971 53.1599 138.266 54.8642C136.562 56.5685 133.799 56.5685 132.095 54.8642Z" fill="#5FDCB2"/>
<path d="M114.482 72.4772C112.262 70.2579 112.262 66.6596 114.482 64.4403C116.701 62.2209 120.299 62.2209 122.518 64.4403C124.738 66.6596 124.738 70.2579 122.518 72.4772C120.299 74.6965 116.701 74.6965 114.482 72.4772Z" fill="#5FDCB2"/>
<path d="M96.8761 90.0826C94.1459 87.3524 94.1459 82.9259 96.8761 80.1957C99.6063 77.4655 104.033 77.4655 106.763 80.1957C109.493 82.9259 109.493 87.3524 106.763 90.0826C104.033 92.8128 99.6063 92.8128 96.8761 90.0826Z" fill="#5FDCB2"/>
<path d="M80.1957 106.763C77.4655 104.033 77.4655 99.6063 80.1957 96.8761C82.9259 94.1459 87.3524 94.1459 90.0826 96.8761C92.8128 99.6063 92.8128 104.033 90.0826 106.763C87.3524 109.493 82.9259 109.493 80.1957 106.763Z" fill="#5FDCB2"/>
<path d="M64.4402 122.518C62.2209 120.299 62.2209 116.701 64.4402 114.482C66.6596 112.262 70.2578 112.262 72.4772 114.482C74.6965 116.701 74.6965 120.299 72.4772 122.518C70.2578 124.738 66.6596 124.738 64.4402 122.518Z" fill="#5FDCB2"/>
<path d="M48.6924 138.266C46.9882 136.562 46.9882 133.799 48.6924 132.095C50.3967 130.39 53.1599 130.39 54.8642 132.095C56.5685 133.799 56.5685 136.562 54.8642 138.266C53.1599 139.971 50.3967 139.971 48.6924 138.266Z" fill="#5FDCB2"/>
<path d="M32.937 154.022C31.7436 152.828 31.7436 150.893 32.937 149.7C34.1304 148.507 36.0654 148.507 37.2588 149.7C38.4522 150.893 38.4522 152.828 37.2588 154.022C36.0654 155.215 34.1304 155.215 32.937 154.022Z" fill="#5FDCB2"/>
<path d="M17.1892 169.77C16.5108 169.091 16.5108 167.991 17.1892 167.313C17.8676 166.635 18.9674 166.635 19.6458 167.313C20.3241 167.991 20.3241 169.091 19.6458 169.77C18.9674 170.448 17.8676 170.448 17.1892 169.77Z" fill="#5FDCB2"/>
<path d="M133.482 20.1158C132.544 19.1779 132.544 17.6571 133.482 16.7191C134.42 15.7811 135.941 15.7811 136.879 16.7191C137.817 17.6571 137.817 19.1779 136.879 20.1158C135.941 21.0538 134.42 21.0538 133.482 20.1158Z" fill="#5FDCB2"/>
<path d="M116.112 37.4862C114.793 36.1672 114.793 34.0286 116.112 32.7096C117.431 31.3905 119.569 31.3905 120.888 32.7096C122.207 34.0286 122.207 36.1672 120.888 37.4862C119.569 38.8053 117.431 38.8053 116.112 37.4862Z" fill="#5FDCB2"/>
<path d="M98.7337 54.8642C97.0294 53.1599 97.0294 50.3967 98.7337 48.6924C100.438 46.9882 103.201 46.9882 104.905 48.6924C106.61 50.3967 106.61 53.1599 104.905 54.8642C103.201 56.5685 100.438 56.5685 98.7337 54.8642Z" fill="#5FDCB2"/>
<path d="M81.3557 72.2421C79.2662 70.1526 79.2662 66.7648 81.3557 64.6753C83.4453 62.5858 86.833 62.5858 88.9226 64.6753C91.0121 66.7648 91.0121 70.1526 88.9226 72.2422C86.833 74.3317 83.4453 74.3317 81.3557 72.2421Z" fill="#5FDCB2"/>
<path d="M64.6753 88.9226C62.5858 86.833 62.5858 83.4453 64.6753 81.3557C66.7648 79.2662 70.1526 79.2662 72.2422 81.3557C74.3317 83.4453 74.3317 86.8331 72.2422 88.9226C70.1526 91.0121 66.7648 91.0121 64.6753 88.9226Z" fill="#5FDCB2"/>
<path d="M48.6924 104.905C46.9882 103.201 46.9882 100.438 48.6924 98.7337C50.3967 97.0294 53.1599 97.0294 54.8642 98.7337C56.5685 100.438 56.5685 103.201 54.8642 104.905C53.1599 106.61 50.3967 106.61 48.6924 104.905Z" fill="#5FDCB2"/>
<path d="M32.7096 120.888C31.3905 119.569 31.3905 117.431 32.7096 116.112C34.0286 114.793 36.1672 114.793 37.4862 116.112C38.8053 117.431 38.8053 119.569 37.4862 120.888C36.1672 122.207 34.0286 122.207 32.7096 120.888Z" fill="#5FDCB2"/>
<path d="M16.7191 136.879C15.7811 135.941 15.7811 134.42 16.7191 133.482C17.6571 132.544 19.1778 132.544 20.1158 133.482C21.0538 134.42 21.0538 135.941 20.1158 136.879C19.1778 137.817 17.6571 137.817 16.7191 136.879Z" fill="#5FDCB2"/>
<path d="M117.272 2.96534C116.593 2.28698 116.593 1.18714 117.272 0.508775C117.95 -0.169589 119.05 -0.169593 119.728 0.50877C120.407 1.18713 120.407 2.28697 119.728 2.96534C119.05 3.6437 117.95 3.6437 117.272 2.96534Z" fill="#5FDCB2"/>
<path d="M100.121 20.1158C99.1832 19.1779 99.1832 17.6571 100.121 16.7191C101.059 15.7811 102.58 15.7811 103.518 16.7191C104.456 17.6571 104.456 19.1779 103.518 20.1158C102.58 21.0538 101.059 21.0538 100.121 20.1158Z" fill="#5FDCB2"/>
<path d="M82.9783 37.2588C81.7849 36.0654 81.7849 34.1304 82.9783 32.937C84.1717 31.7436 86.1066 31.7436 87.3 32.937C88.4935 34.1304 88.4935 36.0654 87.3 37.2588C86.1066 38.4522 84.1717 38.4522 82.9783 37.2588Z" fill="#5FDCB2"/>
<path d="M65.8354 54.4017C64.3865 52.9528 64.3865 50.6038 65.8354 49.1549C67.2842 47.7061 69.6332 47.7061 71.0821 49.1549C72.5309 50.6038 72.531 52.9528 71.0821 54.4017C69.6333 55.8505 67.2842 55.8505 65.8354 54.4017Z" fill="#5FDCB2"/>
<path d="M49.1549 71.0821C47.7061 69.6333 47.7061 67.2842 49.1549 65.8354C50.6038 64.3865 52.9528 64.3865 54.4017 65.8354C55.8505 67.2842 55.8505 69.6333 54.4017 71.0821C52.9528 72.531 50.6038 72.531 49.1549 71.0821Z" fill="#5FDCB2"/>
<path d="M32.937 87.3C31.7436 86.1066 31.7436 84.1717 32.937 82.9783C34.1304 81.7849 36.0654 81.7849 37.2588 82.9783C38.4522 84.1717 38.4522 86.1066 37.2588 87.3C36.0654 88.4934 34.1304 88.4934 32.937 87.3Z" fill="#5FDCB2"/>
<path d="M16.7191 103.518C15.7811 102.58 15.7811 101.059 16.7191 100.121C17.6571 99.1832 19.1778 99.1832 20.1158 100.121C21.0538 101.059 21.0538 102.58 20.1158 103.518C19.1778 104.456 17.6571 104.456 16.7191 103.518Z" fill="#5FDCB2"/>
<path d="M0.508789 119.728C-0.169586 119.05 -0.169586 117.95 0.508789 117.272C1.18715 116.593 2.28699 116.593 2.96535 117.272C3.64371 117.95 3.64371 119.05 2.96535 119.728C2.28699 120.407 1.18715 120.407 0.508789 119.728Z" fill="#5FDCB2"/>
<path d="M67.2305 19.6458C66.5521 18.9674 66.5521 17.8676 67.2305 17.1892C67.9088 16.5108 69.0087 16.5108 69.687 17.1892C70.3654 17.8676 70.3654 18.9674 69.687 19.6458C69.0087 20.3241 67.9088 20.3241 67.2305 19.6458Z" fill="#5FDCB2"/>
<path d="M50.315 36.5612C49.5068 35.7531 49.5068 34.4427 50.315 33.6346C51.1232 32.8264 52.4335 32.8264 53.2416 33.6346C54.0498 34.4427 54.0498 35.753 53.2416 36.5612C52.4335 37.3694 51.1232 37.3694 50.315 36.5612Z" fill="#5FDCB2"/>
<path d="M33.6346 53.2416C32.8264 52.4335 32.8264 51.1232 33.6346 50.315C34.4427 49.5068 35.753 49.5068 36.5612 50.315C37.3694 51.1232 37.3694 52.4335 36.5612 53.2416C35.753 54.0498 34.4427 54.0498 33.6346 53.2416Z" fill="#5FDCB2"/>
<path d="M17.1892 69.687C16.5108 69.0087 16.5108 67.9088 17.1892 67.2305C17.8676 66.5521 18.9674 66.5521 19.6458 67.2305C20.3241 67.9088 20.3241 69.0087 19.6458 69.687C18.9674 70.3654 17.8676 70.3654 17.1892 69.687Z" fill="#5FDCB2"/>
</svg>
