<svg width="172" height="172" viewBox="0 0 172 172" fill="none" xmlns="http://www.w3.org/2000/svg">
<path d="M169.694 59.0321C168.935 59.0321 168.319 58.4165 168.319 57.6571C168.319 56.8977 168.935 56.2821 169.694 56.2821C170.454 56.2821 171.069 56.8977 171.069 57.6571C171.069 58.4165 170.454 59.0321 169.694 59.0321Z" fill="#F0F424"/>
<path d="M169.694 77.9682C168.79 77.9682 168.056 77.2348 168.056 76.3301C168.056 75.4254 168.79 74.692 169.694 74.692C170.599 74.692 171.333 75.4254 171.333 76.3301C171.333 77.2348 170.599 77.9682 169.694 77.9682Z" fill="#F0F424"/>
<path d="M169.694 96.6412C168.79 96.6412 168.056 95.9078 168.056 95.0031C168.056 94.0983 168.79 93.3649 169.694 93.3649C170.599 93.3649 171.333 94.0983 171.333 95.0031C171.333 95.9078 170.599 96.6412 169.694 96.6412Z" fill="#F0F424"/>
<path d="M169.694 115.051C168.935 115.051 168.319 114.435 168.319 113.676C168.319 112.917 168.935 112.301 169.694 112.301C170.454 112.301 171.069 112.917 171.069 113.676C171.069 114.435 170.454 115.051 169.694 115.051Z" fill="#F0F424"/>
<path d="M151.021 21.6862C150.262 21.6862 149.646 21.0706 149.646 20.3112C149.646 19.5518 150.262 18.9362 151.021 18.9362C151.781 18.9362 152.396 19.5518 152.396 20.3112C152.396 21.0706 151.781 21.6862 151.021 21.6862Z" fill="#F0F424"/>
<path d="M151.021 40.8854C149.971 40.8854 149.12 40.0342 149.12 38.9842C149.12 37.9341 149.971 37.0829 151.021 37.0829C152.071 37.0829 152.923 37.9341 152.923 38.9842C152.923 40.0342 152.071 40.8854 151.021 40.8854Z" fill="#F0F424"/>
<path d="M151.021 60.0761C149.685 60.0761 148.602 58.9931 148.602 57.6571C148.602 56.3211 149.685 55.2381 151.021 55.2381C152.357 55.2381 153.44 56.3211 153.44 57.6571C153.44 58.9931 152.357 60.0761 151.021 60.0761Z" fill="#F0F424"/>
<path d="M151.021 79.2668C149.399 79.2668 148.085 77.952 148.085 76.3301C148.085 74.7082 149.399 73.3933 151.021 73.3933C152.643 73.3933 153.958 74.7082 153.958 76.3301C153.958 77.952 152.643 79.2668 151.021 79.2668Z" fill="#F0F424"/>
<path d="M151.021 97.9398C149.399 97.9398 148.085 96.625 148.085 95.0031C148.085 93.3811 149.399 92.0663 151.021 92.0663C152.643 92.0663 153.958 93.3811 153.958 95.0031C153.958 96.625 152.643 97.9398 151.021 97.9398Z" fill="#F0F424"/>
<path d="M151.021 116.095C149.685 116.095 148.602 115.012 148.602 113.676C148.602 112.34 149.685 111.257 151.021 111.257C152.357 111.257 153.44 112.34 153.44 113.676C153.44 115.012 152.357 116.095 151.021 116.095Z" fill="#F0F424"/>
<path d="M151.021 134.25C149.971 134.25 149.12 133.399 149.12 132.349C149.12 131.299 149.971 130.448 151.021 130.448C152.071 130.448 152.923 131.299 152.923 132.349C152.923 133.399 152.071 134.25 151.021 134.25Z" fill="#F0F424"/>
<path d="M151.021 152.397C150.262 152.397 149.646 151.781 149.646 151.022C149.646 150.263 150.262 149.647 151.021 149.647C151.781 149.647 152.396 150.263 152.396 151.022C152.396 151.781 151.781 152.397 151.021 152.397Z" fill="#F0F424"/>
<path d="M132.348 22.2124C131.298 22.2124 130.447 21.3612 130.447 20.3112C130.447 19.2612 131.298 18.4099 132.348 18.4099C133.398 18.4099 134.25 19.2611 134.25 20.3112C134.25 21.3612 133.398 22.2124 132.348 22.2124Z" fill="#F0F424"/>
<path d="M132.348 41.6578C130.872 41.6578 129.675 40.4608 129.675 38.9842C129.675 37.5075 130.872 36.3105 132.348 36.3105C133.825 36.3105 135.022 37.5075 135.022 38.9841C135.022 40.4608 133.825 41.6578 132.348 41.6578Z" fill="#F0F424"/>
<path d="M132.348 61.1116C130.441 61.1116 128.894 59.565 128.894 57.6571C128.894 55.7493 130.441 54.2026 132.348 54.2026C134.256 54.2026 135.803 55.7492 135.803 57.6571C135.803 59.565 134.256 61.1116 132.348 61.1116Z" fill="#F0F424"/>
<path d="M132.348 80.5655C130.009 80.5655 128.113 78.6692 128.113 76.3301C128.113 73.991 130.009 72.0947 132.348 72.0947C134.688 72.0947 136.584 73.991 136.584 76.3301C136.584 78.6692 134.688 80.5655 132.348 80.5655Z" fill="#F0F424"/>
<path d="M132.348 99.2384C130.009 99.2384 128.113 97.3422 128.113 95.0031C128.113 92.6639 130.009 90.7677 132.348 90.7677C134.688 90.7677 136.584 92.6639 136.584 95.0031C136.584 97.3422 134.688 99.2384 132.348 99.2384Z" fill="#F0F424"/>
<path d="M132.348 117.131C130.441 117.131 128.894 115.584 128.894 113.676C128.894 111.768 130.441 110.222 132.348 110.222C134.256 110.222 135.803 111.768 135.803 113.676C135.803 115.584 134.256 117.131 132.348 117.131Z" fill="#F0F424"/>
<path d="M132.348 135.023C130.872 135.023 129.675 133.826 129.675 132.349C129.675 130.872 130.872 129.675 132.348 129.675C133.825 129.675 135.022 130.872 135.022 132.349C135.022 133.826 133.825 135.023 132.348 135.023Z" fill="#F0F424"/>
<path d="M132.348 152.923C131.298 152.923 130.447 152.072 130.447 151.022C130.447 149.972 131.298 149.121 132.348 149.121C133.398 149.121 134.25 149.972 134.25 151.022C134.25 152.072 133.398 152.923 132.348 152.923Z" fill="#F0F424"/>
<path d="M113.675 3.01322C112.916 3.01322 112.3 2.39761 112.3 1.63821C112.3 0.878812 112.916 0.263202 113.675 0.2632C114.435 0.263201 115.05 0.87881 115.05 1.63821C115.05 2.39761 114.435 3.01322 113.675 3.01322Z" fill="#F0F424"/>
<path d="M113.675 22.7302C112.339 22.7302 111.256 21.6472 111.256 20.3112C111.256 18.9752 112.339 17.8922 113.675 17.8922C115.011 17.8922 116.094 18.9752 116.094 20.3112C116.094 21.6472 115.011 22.7302 113.675 22.7302Z" fill="#F0F424"/>
<path d="M113.675 42.4387C111.768 42.4387 110.221 40.892 110.221 38.9841C110.221 37.0763 111.768 35.5296 113.675 35.5296C115.583 35.5296 117.13 37.0763 117.13 38.9842C117.13 40.892 115.583 42.4386 113.675 42.4387Z" fill="#F0F424"/>
<path d="M113.675 62.1556C111.191 62.1556 109.177 60.1416 109.177 57.6571C109.177 55.1727 111.191 53.1586 113.675 53.1586C116.16 53.1586 118.174 55.1727 118.174 57.6571C118.174 60.1416 116.16 62.1556 113.675 62.1556Z" fill="#F0F424"/>
<path d="M113.675 81.8641C110.619 81.8641 108.141 79.3864 108.141 76.3301C108.141 73.2737 110.619 70.7961 113.675 70.7961C116.732 70.7961 119.209 73.2737 119.209 76.3301C119.209 79.3864 116.732 81.8641 113.675 81.8641Z" fill="#F0F424"/>
<path d="M113.675 100.537C110.619 100.537 108.141 98.0594 108.141 95.0031C108.141 91.9467 110.619 89.4691 113.675 89.4691C116.732 89.4691 119.209 91.9467 119.209 95.0031C119.209 98.0594 116.732 100.537 113.675 100.537Z" fill="#F0F424"/>
<path d="M113.675 118.175C111.191 118.175 109.177 116.16 109.177 113.676C109.177 111.192 111.191 109.178 113.675 109.178C116.16 109.178 118.174 111.192 118.174 113.676C118.174 116.16 116.16 118.175 113.675 118.175Z" fill="#F0F424"/>
<path d="M113.675 135.803C111.768 135.804 110.221 134.257 110.221 132.349C110.221 130.441 111.768 128.894 113.675 128.894C115.583 128.894 117.13 130.441 117.13 132.349C117.13 134.257 115.583 135.803 113.675 135.803Z" fill="#F0F424"/>
<path d="M113.675 153.441C112.339 153.441 111.256 152.358 111.256 151.022C111.256 149.686 112.339 148.603 113.675 148.603C115.011 148.603 116.094 149.686 116.094 151.022C116.094 152.358 115.011 153.441 113.675 153.441Z" fill="#F0F424"/>
<path d="M113.675 171.07C112.916 171.07 112.3 170.454 112.3 169.695C112.3 168.936 112.916 168.32 113.675 168.32C114.435 168.32 115.05 168.936 115.05 169.695C115.05 170.454 114.435 171.07 113.675 171.07Z" fill="#F0F424"/>
<path d="M95.0025 3.27634C94.0978 3.27634 93.3644 2.54292 93.3644 1.63821C93.3644 0.733494 94.0978 7.94172e-05 95.0025 8.21146e-05C95.9072 8.21146e-05 96.6406 0.733497 96.6406 1.63821C96.6406 2.54292 95.9072 3.27634 95.0025 3.27634Z" fill="#F0F424"/>
<path d="M95.0025 23.2479C93.3806 23.2479 92.0657 21.9331 92.0657 20.3112C92.0657 18.6893 93.3806 17.3744 95.0025 17.3744C96.6244 17.3744 97.9392 18.6893 97.9392 20.3112C97.9392 21.9331 96.6244 23.2479 95.0025 23.2479Z" fill="#F0F424"/>
<path d="M95.0025 43.2195C92.6634 43.2195 90.7671 41.3233 90.7671 38.9842C90.7671 36.645 92.6634 34.7488 95.0025 34.7488C97.3416 34.7488 99.2379 36.645 99.2379 38.9841C99.2379 41.3233 97.3416 43.2195 95.0025 43.2195Z" fill="#F0F424"/>
<path d="M95.0025 63.1911C91.9462 63.1911 89.4685 60.7135 89.4685 57.6571C89.4685 54.6008 91.9462 52.1231 95.0025 52.1231C98.0588 52.1231 100.536 54.6008 100.536 57.6571C100.536 60.7135 98.0588 63.1911 95.0025 63.1911Z" fill="#F0F424"/>
<path d="M95.0025 83.1627C91.2289 83.1627 88.1699 80.1036 88.1699 76.3301C88.1699 72.5565 91.229 69.4975 95.0025 69.4975C98.776 69.4975 101.835 72.5565 101.835 76.3301C101.835 80.1036 98.776 83.1627 95.0025 83.1627Z" fill="#F0F424"/>
<path d="M95.0025 101.836C91.2289 101.836 88.1699 98.7766 88.1699 95.0031C88.1699 91.2295 91.229 88.1705 95.0025 88.1705C98.776 88.1705 101.835 91.2295 101.835 95.0031C101.835 98.7766 98.776 101.836 95.0025 101.836Z" fill="#F0F424"/>
<path d="M95.0025 119.21C91.9462 119.21 89.4685 116.732 89.4685 113.676C89.4685 110.62 91.9462 108.142 95.0025 108.142C98.0588 108.142 100.536 110.62 100.536 113.676C100.536 116.732 98.0588 119.21 95.0025 119.21Z" fill="#F0F424"/>
<path d="M95.0025 136.584C92.6634 136.584 90.7671 134.688 90.7671 132.349C90.7671 130.01 92.6634 128.114 95.0025 128.114C97.3416 128.114 99.2379 130.01 99.2379 132.349C99.2379 134.688 97.3416 136.584 95.0025 136.584Z" fill="#F0F424"/>
<path d="M95.0025 153.959C93.3806 153.959 92.0657 152.644 92.0657 151.022C92.0657 149.4 93.3806 148.085 95.0025 148.085C96.6244 148.085 97.9392 149.4 97.9393 151.022C97.9392 152.644 96.6244 153.959 95.0025 153.959Z" fill="#F0F424"/>
<path d="M95.0025 171.333C94.0978 171.333 93.3644 170.6 93.3644 169.695C93.3644 168.79 94.0978 168.057 95.0025 168.057C95.9072 168.057 96.6406 168.79 96.6406 169.695C96.6406 170.6 95.9072 171.333 95.0025 171.333Z" fill="#F0F424"/>
<path d="M76.3295 3.27634C75.4248 3.27634 74.6914 2.54292 74.6914 1.63821C74.6914 0.733494 75.4248 7.94172e-05 76.3295 7.94172e-05C77.2342 8.07659e-05 77.9677 0.733495 77.9677 1.63821C77.9677 2.54292 77.2342 3.27634 76.3295 3.27634Z" fill="#F0F424"/>
<path d="M76.3295 23.2479C74.7076 23.2479 73.3928 21.9331 73.3928 20.3112C73.3928 18.6893 74.7076 17.3744 76.3295 17.3744C77.9515 17.3744 79.2663 18.6893 79.2663 20.3112C79.2663 21.9331 77.9514 23.2479 76.3295 23.2479Z" fill="#F0F424"/>
<path d="M76.3295 43.2195C73.9904 43.2195 72.0942 41.3233 72.0942 38.9841C72.0942 36.645 73.9904 34.7488 76.3295 34.7488C78.6687 34.7488 80.5649 36.645 80.5649 38.9841C80.5649 41.3233 78.6687 43.2195 76.3295 43.2195Z" fill="#F0F424"/>
<path d="M76.3295 63.1911C73.2732 63.1911 70.7955 60.7135 70.7955 57.6571C70.7955 54.6008 73.2732 52.1231 76.3295 52.1231C79.3859 52.1231 81.8635 54.6008 81.8635 57.6571C81.8635 60.7135 79.3859 63.1911 76.3295 63.1911Z" fill="#F0F424"/>
<path d="M76.3295 83.1627C72.556 83.1627 69.4969 80.1036 69.4969 76.3301C69.4969 72.5565 72.556 69.4975 76.3295 69.4975C80.1031 69.4975 83.1621 72.5565 83.1621 76.3301C83.1621 80.1036 80.1031 83.1627 76.3295 83.1627Z" fill="#F0F424"/>
<path d="M76.3295 101.836C72.556 101.836 69.4969 98.7766 69.4969 95.0031C69.4969 91.2295 72.556 88.1705 76.3295 88.1705C80.1031 88.1705 83.1621 91.2295 83.1621 95.0031C83.1621 98.7766 80.1031 101.836 76.3295 101.836Z" fill="#F0F424"/>
<path d="M76.3295 119.21C73.2732 119.21 70.7955 116.732 70.7955 113.676C70.7955 110.62 73.2732 108.142 76.3295 108.142C79.3859 108.142 81.8635 110.62 81.8635 113.676C81.8635 116.732 79.3859 119.21 76.3295 119.21Z" fill="#F0F424"/>
<path d="M76.3295 136.584C73.9904 136.584 72.0942 134.688 72.0942 132.349C72.0942 130.01 73.9904 128.114 76.3295 128.114C78.6687 128.114 80.5649 130.01 80.5649 132.349C80.5649 134.688 78.6687 136.584 76.3295 136.584Z" fill="#F0F424"/>
<path d="M76.3295 153.959C74.7076 153.959 73.3928 152.644 73.3928 151.022C73.3928 149.4 74.7076 148.085 76.3295 148.085C77.9515 148.085 79.2663 149.4 79.2663 151.022C79.2663 152.644 77.9515 153.959 76.3295 153.959Z" fill="#F0F424"/>
<path d="M76.3295 171.333C75.4248 171.333 74.6914 170.6 74.6914 169.695C74.6914 168.79 75.4248 168.057 76.3295 168.057C77.2342 168.057 77.9677 168.79 77.9676 169.695C77.9677 170.6 77.2343 171.333 76.3295 171.333Z" fill="#F0F424"/>
<path d="M57.6566 3.01322C56.8972 3.01322 56.2816 2.39761 56.2816 1.63821C56.2816 0.878813 56.8972 0.263199 57.6566 0.263198C58.416 0.263201 59.0316 0.878814 59.0316 1.63821C59.0316 2.39761 58.416 3.01322 57.6566 3.01322Z" fill="#F0F424"/>
<path d="M57.6566 22.7302C56.3206 22.7302 55.2376 21.6472 55.2376 20.3112C55.2376 18.9752 56.3206 17.8922 57.6566 17.8922C58.9925 17.8922 60.0756 18.9752 60.0756 20.3112C60.0756 21.6472 58.9925 22.7302 57.6566 22.7302Z" fill="#F0F424"/>
<path d="M57.6566 42.4387C55.7487 42.4386 54.2021 40.892 54.2021 38.9842C54.2021 37.0763 55.7487 35.5296 57.6566 35.5296C59.5644 35.5296 61.1111 37.0763 61.1111 38.9842C61.1111 40.892 59.5644 42.4386 57.6566 42.4387Z" fill="#F0F424"/>
<path d="M57.6566 62.1556C55.1721 62.1556 53.1581 60.1416 53.1581 57.6571C53.1581 55.1727 55.1721 53.1586 57.6566 53.1586C60.141 53.1586 62.155 55.1727 62.155 57.6571C62.155 60.1416 60.141 62.1556 57.6566 62.1556Z" fill="#F0F424"/>
<path d="M57.6566 81.8641C54.6002 81.8641 52.1226 79.3864 52.1226 76.3301C52.1226 73.2737 54.6002 70.7961 57.6566 70.7961C60.7129 70.7961 63.1905 73.2737 63.1905 76.3301C63.1905 79.3864 60.7129 81.8641 57.6566 81.8641Z" fill="#F0F424"/>
<path d="M57.6566 100.537C54.6002 100.537 52.1226 98.0594 52.1226 95.0031C52.1226 91.9467 54.6002 89.4691 57.6566 89.4691C60.7129 89.4691 63.1905 91.9467 63.1905 95.0031C63.1905 98.0594 60.7129 100.537 57.6566 100.537Z" fill="#F0F424"/>
<path d="M57.6565 118.175C55.1721 118.175 53.1581 116.16 53.1581 113.676C53.1581 111.192 55.1721 109.178 57.6566 109.178C60.141 109.178 62.155 111.192 62.155 113.676C62.155 116.16 60.141 118.175 57.6565 118.175Z" fill="#F0F424"/>
<path d="M57.6566 135.803C55.7487 135.803 54.2021 134.257 54.2021 132.349C54.2021 130.441 55.7487 128.894 57.6566 128.894C59.5644 128.894 61.1111 130.441 61.1111 132.349C61.1111 134.257 59.5644 135.804 57.6566 135.803Z" fill="#F0F424"/>
<path d="M57.6566 153.441C56.3206 153.441 55.2376 152.358 55.2376 151.022C55.2376 149.686 56.3206 148.603 57.6566 148.603C58.9925 148.603 60.0756 149.686 60.0756 151.022C60.0756 152.358 58.9925 153.441 57.6566 153.441Z" fill="#F0F424"/>
<path d="M57.6566 171.07C56.8972 171.07 56.2816 170.454 56.2816 169.695C56.2816 168.936 56.8972 168.32 57.6566 168.32C58.416 168.32 59.0316 168.936 59.0316 169.695C59.0316 170.454 58.416 171.07 57.6566 171.07Z" fill="#F0F424"/>
<path d="M38.9836 22.2124C37.9335 22.2124 37.0823 21.3612 37.0823 20.3112C37.0823 19.2611 37.9335 18.4099 38.9836 18.4099C40.0336 18.4099 40.8848 19.2612 40.8848 20.3112C40.8848 21.3612 40.0336 22.2124 38.9836 22.2124Z" fill="#F0F424"/>
<path d="M38.9836 41.6578C37.507 41.6578 36.31 40.4608 36.31 38.9841C36.31 37.5075 37.507 36.3105 38.9836 36.3105C40.4602 36.3105 41.6572 37.5075 41.6572 38.9842C41.6572 40.4608 40.4602 41.6578 38.9836 41.6578Z" fill="#F0F424"/>
<path d="M38.9836 61.1116C37.0757 61.1116 35.5291 59.565 35.5291 57.6571C35.5291 55.7493 37.0757 54.2026 38.9836 54.2026C40.8915 54.2026 42.4381 55.7493 42.4381 57.6571C42.4381 59.565 40.8915 61.1116 38.9836 61.1116Z" fill="#F0F424"/>
<path d="M38.9836 80.5655C36.6444 80.5655 34.7482 78.6692 34.7482 76.3301C34.7482 73.991 36.6445 72.0947 38.9836 72.0947C41.3227 72.0947 43.219 73.991 43.219 76.3301C43.219 78.6692 41.3227 80.5655 38.9836 80.5655Z" fill="#F0F424"/>
<path d="M38.9836 99.2384C36.6444 99.2384 34.7482 97.3422 34.7482 95.0031C34.7482 92.6639 36.6445 90.7677 38.9836 90.7677C41.3227 90.7677 43.219 92.6639 43.2189 95.0031C43.219 97.3422 41.3227 99.2384 38.9836 99.2384Z" fill="#F0F424"/>
<path d="M38.9836 117.131C37.0757 117.131 35.5291 115.584 35.5291 113.676C35.5291 111.768 37.0757 110.222 38.9836 110.222C40.8915 110.222 42.4381 111.768 42.4381 113.676C42.4381 115.584 40.8915 117.131 38.9836 117.131Z" fill="#F0F424"/>
<path d="M38.9836 135.023C37.507 135.023 36.31 133.826 36.31 132.349C36.31 130.872 37.507 129.675 38.9836 129.675C40.4602 129.675 41.6572 130.872 41.6572 132.349C41.6572 133.826 40.4602 135.023 38.9836 135.023Z" fill="#F0F424"/>
<path d="M38.9836 152.923C37.9335 152.923 37.0823 152.072 37.0823 151.022C37.0823 149.972 37.9335 149.121 38.9836 149.121C40.0336 149.121 40.8848 149.972 40.8848 151.022C40.8848 152.072 40.0336 152.923 38.9836 152.923Z" fill="#F0F424"/>
<path d="M20.3106 21.6862C19.5512 21.6862 18.9356 21.0706 18.9356 20.3112C18.9356 19.5518 19.5512 18.9362 20.3106 18.9362C21.07 18.9362 21.6856 19.5518 21.6856 20.3112C21.6856 21.0706 21.07 21.6862 20.3106 21.6862Z" fill="#F0F424"/>
<path d="M20.3106 40.8854C19.2606 40.8854 18.4094 40.0342 18.4094 38.9842C18.4094 37.9341 19.2606 37.0829 20.3106 37.0829C21.3606 37.0829 22.2119 37.9341 22.2119 38.9841C22.2119 40.0342 21.3606 40.8854 20.3106 40.8854Z" fill="#F0F424"/>
<path d="M20.3106 60.0761C18.9746 60.0761 17.8916 58.9931 17.8916 57.6571C17.8916 56.3211 18.9746 55.2381 20.3106 55.2381C21.6466 55.2381 22.7296 56.3211 22.7296 57.6571C22.7296 58.9931 21.6466 60.0761 20.3106 60.0761Z" fill="#F0F424"/>
<path d="M20.3106 79.2668C18.6887 79.2668 17.3739 77.952 17.3739 76.3301C17.3739 74.7082 18.6887 73.3933 20.3106 73.3933C21.9325 73.3933 23.2474 74.7082 23.2474 76.3301C23.2474 77.952 21.9325 79.2668 20.3106 79.2668Z" fill="#F0F424"/>
<path d="M20.3106 97.9398C18.6887 97.9398 17.3739 96.625 17.3739 95.0031C17.3739 93.3811 18.6887 92.0663 20.3106 92.0663C21.9325 92.0663 23.2474 93.3811 23.2474 95.0031C23.2474 96.625 21.9325 97.9398 20.3106 97.9398Z" fill="#F0F424"/>
<path d="M20.3106 116.095C18.9746 116.095 17.8916 115.012 17.8916 113.676C17.8916 112.34 18.9746 111.257 20.3106 111.257C21.6466 111.257 22.7296 112.34 22.7296 113.676C22.7296 115.012 21.6466 116.095 20.3106 116.095Z" fill="#F0F424"/>
<path d="M20.3106 134.25C19.2606 134.25 18.4094 133.399 18.4094 132.349C18.4093 131.299 19.2606 130.448 20.3106 130.448C21.3606 130.448 22.2119 131.299 22.2119 132.349C22.2119 133.399 21.3606 134.25 20.3106 134.25Z" fill="#F0F424"/>
<path d="M20.3106 152.397C19.5512 152.397 18.9356 151.781 18.9356 151.022C18.9356 150.263 19.5512 149.647 20.3106 149.647C21.07 149.647 21.6856 150.263 21.6856 151.022C21.6856 151.781 21.07 152.397 20.3106 152.397Z" fill="#F0F424"/>
<path d="M1.63765 59.0321C0.878252 59.0321 0.262641 58.4165 0.26264 57.6571C0.262649 56.8977 0.878256 56.2821 1.63765 56.2821C2.39705 56.2821 3.01266 56.8977 3.01265 57.6571C3.01265 58.4165 2.39705 59.0321 1.63765 59.0321Z" fill="#F0F424"/>
<path d="M1.63765 77.9682C0.73293 77.9682 -0.000470896 77.2348 -0.000462804 76.3301C-0.00046685 75.4254 0.732931 74.692 1.63765 74.692C2.54236 74.692 3.27577 75.4254 3.27578 76.3301C3.27577 77.2348 2.54236 77.9682 1.63765 77.9682Z" fill="#F0F424"/>
<path d="M1.63766 96.6412C0.732931 96.6412 -0.000469547 95.9078 -0.000472245 95.0031C-0.000464152 94.0983 0.732931 93.3649 1.63764 93.3649C2.54237 93.3649 3.27578 94.0983 3.27577 95.0031C3.27577 95.9078 2.54237 96.6412 1.63766 96.6412Z" fill="#F0F424"/>
<path d="M1.63766 115.051C0.878254 115.051 0.262645 114.435 0.262654 113.676C0.262654 112.917 0.878254 112.301 1.63766 112.301C2.39705 112.301 3.01266 112.917 3.01266 113.676C3.01266 114.435 2.39706 115.051 1.63766 115.051Z" fill="#F0F424"/>
</svg>
