<svg width="191" height="27" viewBox="0 0 191 27" fill="none" xmlns="http://www.w3.org/2000/svg">
<path d="M9.58232 26.7591C7.71909 26.7591 6.07365 26.4422 4.64598 25.8086C3.21831 25.1506 2.09311 24.2245 1.27038 23.0303C0.447659 21.8118 0.0241978 20.3374 0 18.6071H4.90005C4.94845 19.8012 5.37191 20.8126 6.17044 21.6412C6.99316 22.4454 8.11836 22.8476 9.54603 22.8476C10.7801 22.8476 11.7601 22.5551 12.4861 21.9702C13.212 21.3609 13.575 20.5567 13.575 19.5575C13.575 18.5096 13.2483 17.6932 12.5949 17.1083C11.9658 16.5234 11.1189 16.0481 10.0542 15.6826C8.98948 15.317 7.85218 14.9271 6.64229 14.5128C4.68227 13.8304 3.18201 12.953 2.1415 11.8807C1.1252 10.8084 0.617044 9.38273 0.617044 7.60367C0.592846 6.09268 0.943714 4.80103 1.66965 3.72872C2.41978 2.63204 3.43609 1.79125 4.71857 1.20635C6.00105 0.597083 7.47712 0.292449 9.14676 0.292449C10.8406 0.292449 12.3288 0.597083 13.6113 1.20635C14.9179 1.81562 15.9342 2.66859 16.6602 3.76528C17.4103 4.86196 17.8096 6.16579 17.858 7.67678H12.8853C12.8611 6.77506 12.5103 5.98301 11.8327 5.30063C11.1794 4.59388 10.2599 4.24051 9.07417 4.24051C8.05786 4.21614 7.19884 4.47203 6.49711 5.00819C5.81957 5.51997 5.4808 6.27546 5.4808 7.27466C5.4808 8.12764 5.74697 8.81002 6.27933 9.3218C6.81168 9.80922 7.53761 10.2235 8.45713 10.5647C9.37664 10.9059 10.4292 11.2715 11.6149 11.6614C12.8732 12.1001 14.0226 12.6119 15.0631 13.1967C16.1036 13.7816 16.9385 14.5615 17.5676 15.5363C18.1967 16.4868 18.5113 17.7175 18.5113 19.2285C18.5113 20.5689 18.1725 21.8118 17.495 22.9572C16.8175 24.1027 15.8133 25.0287 14.4824 25.7355C13.1515 26.4179 11.5181 26.7591 9.58232 26.7591Z" fill="white"/>
<path d="M28.6628 26.7591C27.1141 26.7591 25.8437 26.5154 24.8516 26.0279C23.8595 25.5162 23.1215 24.846 22.6375 24.0174C22.1535 23.1887 21.9116 22.2748 21.9116 21.2756C21.9116 19.5941 22.5649 18.2293 23.8716 17.1814C25.1783 16.1334 27.1383 15.6095 29.7517 15.6095H34.325V15.1708C34.325 13.9279 33.9742 13.014 33.2724 12.4291C32.5707 11.8442 31.6996 11.5517 30.6591 11.5517C29.7154 11.5517 28.8926 11.7832 28.1909 12.2463C27.4892 12.685 27.0536 13.343 26.8842 14.2203H22.3471C22.4681 12.9043 22.9037 11.7589 23.6538 10.784C24.4281 9.80922 25.4202 9.06591 26.6301 8.55413C27.84 8.01797 29.1951 7.74989 30.6954 7.74989C33.2603 7.74989 35.2808 8.39572 36.7569 9.68737C38.233 10.979 38.971 12.8068 38.971 15.1708V26.3204H35.0147L34.5791 23.3959C34.0468 24.3707 33.2966 25.175 32.3287 25.8086C31.385 26.4422 30.163 26.7591 28.6628 26.7591ZM29.7154 23.1035C31.0462 23.1035 32.0746 22.6648 32.8006 21.7874C33.5507 20.9101 34.0226 19.8256 34.2161 18.5339H30.2598C29.0257 18.5339 28.1425 18.7655 27.6102 19.2285C27.0778 19.6672 26.8116 20.2155 26.8116 20.8735C26.8116 21.5803 27.0778 22.1286 27.6102 22.5186C28.1425 22.9085 28.8442 23.1035 29.7154 23.1035Z" fill="white"/>
<path d="M44.2394 26.3204V12.1001H41.7712V8.18857H44.2394V6.06831C44.2394 3.87495 44.7839 2.31522 45.8728 1.38913C46.9859 0.463044 48.4861 0 50.3736 0H52.3699V3.98462H51.0995C50.301 3.98462 49.7323 4.14302 49.3935 4.45984C49.0548 4.77666 48.8854 5.31282 48.8854 6.06831V8.18857H52.7691V12.1001H48.8854V26.3204H44.2394Z" fill="white"/>
<path d="M64.4873 26.7591C62.6725 26.7591 61.0633 26.3691 59.6598 25.5893C58.2564 24.8094 57.1554 23.7127 56.3568 22.2992C55.5583 20.8857 55.159 19.2529 55.159 17.4007C55.159 15.5242 55.5462 13.8548 56.3205 12.3925C57.1191 10.9303 58.208 9.79703 59.5872 8.9928C60.9907 8.16419 62.6362 7.74989 64.5236 7.74989C66.29 7.74989 67.8508 8.13982 69.2059 8.91969C70.5609 9.69955 71.6135 10.7719 72.3637 12.1366C73.138 13.477 73.5252 14.9758 73.5252 16.633C73.5252 16.9011 73.5131 17.1814 73.4889 17.4738C73.4889 17.7663 73.4768 18.0709 73.4526 18.3877H59.7687C59.8655 19.8012 60.3495 20.9101 61.2206 21.7143C62.1159 22.5186 63.1927 22.9207 64.451 22.9207C65.3947 22.9207 66.1811 22.7135 66.8103 22.2992C67.4636 21.8605 67.9476 21.3 68.2622 20.6176H72.9807C72.642 21.7631 72.0733 22.811 71.2748 23.7615C70.5005 24.6876 69.5325 25.4187 68.371 25.9548C67.2337 26.491 65.9392 26.7591 64.4873 26.7591ZM64.5236 11.5517C63.3863 11.5517 62.3821 11.8807 61.511 12.5387C60.6398 13.1724 60.0833 14.1472 59.8413 15.4632H68.8066C68.734 14.2691 68.2984 13.3186 67.4999 12.6119C66.7014 11.9051 65.7093 11.5517 64.5236 11.5517Z" fill="white"/>
<path d="M79.4291 26.5763C78.5821 26.5763 77.8804 26.3082 77.3238 25.772C76.7915 25.2359 76.5253 24.5901 76.5253 23.8346C76.5253 23.0547 76.7915 22.3967 77.3238 21.8605C77.8804 21.3244 78.5821 21.0563 79.4291 21.0563C80.276 21.0563 80.9656 21.3244 81.498 21.8605C82.0545 22.3967 82.3328 23.0547 82.3328 23.8346C82.3328 24.5901 82.0545 25.2359 81.498 25.772C80.9656 26.3082 80.276 26.5763 79.4291 26.5763Z" fill="white"/>
<path d="M86.2613 26.3204V0.731121H90.9073V26.3204H86.2613Z" fill="white"/>
<path d="M95.7229 26.3204V8.18857H99.8244L100.187 11.2593C100.744 10.187 101.542 9.33399 102.583 8.70035C103.648 8.06671 104.894 7.74989 106.321 7.74989C108.548 7.74989 110.278 8.45664 111.512 9.87015C112.746 11.2836 113.363 13.3552 113.363 16.0847V26.3204H108.717V16.5234C108.717 14.9636 108.402 13.7695 107.773 12.9409C107.144 12.1123 106.164 11.698 104.833 11.698C103.527 11.698 102.45 12.161 101.603 13.0871C100.78 14.0132 100.369 15.3048 100.369 16.962V26.3204H95.7229Z" fill="white"/>
<path d="M125.247 26.7591C123.649 26.7591 122.246 26.5032 121.036 25.9914C119.826 25.4552 118.858 24.7241 118.132 23.798C117.406 22.8719 116.971 21.7996 116.826 20.5811H121.508C121.653 21.2878 122.04 21.8971 122.669 22.4089C123.323 22.8963 124.158 23.14 125.174 23.14C126.19 23.14 126.928 22.9329 127.388 22.5186C127.872 22.1043 128.114 21.629 128.114 21.0929C128.114 20.313 127.775 19.789 127.098 19.521C126.42 19.2285 125.476 18.9482 124.267 18.6802C123.492 18.5096 122.706 18.3024 121.907 18.0587C121.109 17.815 120.371 17.5104 119.693 17.1448C119.04 16.7549 118.507 16.2675 118.096 15.6826C117.685 15.0733 117.479 14.33 117.479 13.4526C117.479 11.8442 118.108 10.4916 119.366 9.39492C120.649 8.29823 122.44 7.74989 124.738 7.74989C126.868 7.74989 128.562 8.24949 129.82 9.24869C131.102 10.2479 131.865 11.6248 132.107 13.3795H127.715C127.449 12.0391 126.444 11.3689 124.702 11.3689C123.831 11.3689 123.153 11.5395 122.669 11.8807C122.21 12.2219 121.98 12.6484 121.98 13.1602C121.98 13.6964 122.331 14.1228 123.032 14.4397C123.734 14.7565 124.666 15.0489 125.827 15.317C127.086 15.6095 128.235 15.9385 129.275 16.304C130.34 16.6452 131.187 17.1692 131.816 17.8759C132.445 18.5583 132.76 19.5453 132.76 20.837C132.784 21.958 132.494 22.9694 131.889 23.8711C131.284 24.7728 130.413 25.4796 129.275 25.9914C128.138 26.5032 126.795 26.7591 125.247 26.7591Z" fill="white"/>
<path d="M143.627 26.7591C141.376 26.7591 139.634 26.0523 138.4 24.6388C137.19 23.2253 136.585 21.1538 136.585 18.4243V8.18857H141.195V17.9856C141.195 19.5453 141.51 20.7395 142.139 21.5681C142.768 22.3967 143.76 22.811 145.115 22.811C146.397 22.811 147.45 22.348 148.273 21.4219C149.12 20.4958 149.543 19.2041 149.543 17.5469V8.18857H154.189V26.3204H150.088L149.725 23.2497C149.168 24.322 148.357 25.175 147.293 25.8086C146.252 26.4422 145.03 26.7591 143.627 26.7591Z" fill="white"/>
<path d="M158.958 26.3204V8.18857H163.096L163.532 11.5883C164.185 10.4185 165.068 9.4924 166.182 8.81002C167.319 8.10327 168.65 7.74989 170.174 7.74989V12.685H168.867C167.851 12.685 166.944 12.8434 166.145 13.1602C165.347 13.477 164.718 14.0254 164.258 14.8052C163.822 15.5851 163.604 16.6696 163.604 18.0587V26.3204H158.958Z" fill="white"/>
<path d="M181.778 26.7591C179.963 26.7591 178.354 26.3691 176.951 25.5893C175.547 24.8094 174.446 23.7127 173.648 22.2992C172.849 20.8857 172.45 19.2529 172.45 17.4007C172.45 15.5242 172.837 13.8548 173.611 12.3925C174.41 10.9303 175.499 9.79703 176.878 8.9928C178.281 8.16419 179.927 7.74989 181.814 7.74989C183.581 7.74989 185.142 8.13982 186.497 8.91969C187.852 9.69955 188.904 10.7719 189.654 12.1366C190.429 13.477 190.816 14.9758 190.816 16.633C190.816 16.9011 190.804 17.1814 190.78 17.4738C190.78 17.7663 190.768 18.0709 190.743 18.3877H177.059C177.156 19.8012 177.64 20.9101 178.511 21.7143C179.407 22.5186 180.483 22.9207 181.742 22.9207C182.685 22.9207 183.472 22.7135 184.101 22.2992C184.754 21.8605 185.238 21.3 185.553 20.6176H190.271C189.933 21.7631 189.364 22.811 188.566 23.7615C187.791 24.6876 186.823 25.4187 185.662 25.9548C184.524 26.491 183.23 26.7591 181.778 26.7591ZM181.814 11.5517C180.677 11.5517 179.673 11.8807 178.802 12.5387C177.931 13.1724 177.374 14.1472 177.132 15.4632H186.097C186.025 14.2691 185.589 13.3186 184.791 12.6119C183.992 11.9051 183 11.5517 181.814 11.5517Z" fill="white"/>
</svg>
