<svg width="20" height="8" viewBox="0 0 20 8" fill="none" xmlns="http://www.w3.org/2000/svg">
<path d="M18.4814 -0.5C18.4889 -0.499467 18.5784 -0.488283 18.6611 -0.462891C18.9649 0.0867347 18.4865 0.499883 18.4814 0.5H18.2744C17.4087 0.504583 16.4492 0.839325 15.4707 1.38281C14.4975 1.92338 13.5432 2.64927 12.6982 3.38477C11.855 4.11885 11.131 4.85412 10.6172 5.40625C10.3606 5.68199 10.1572 5.91154 10.0186 6.07129C9.94937 6.15098 9.89581 6.21283 9.86035 6.25488C9.84262 6.27592 9.82904 6.29225 9.82031 6.30273C9.81602 6.3079 9.81257 6.31201 9.81055 6.31445C9.80978 6.31538 9.80899 6.31592 9.80859 6.31641V6.31738L9.42188 6.78809L9.03516 6.31738V6.31641C9.03475 6.31592 9.03397 6.31538 9.0332 6.31445C9.03118 6.312 9.02774 6.30791 9.02344 6.30273C9.0147 6.29223 9.00116 6.27595 8.9834 6.25488C8.94788 6.21276 8.89454 6.15019 8.8252 6.07031C8.68633 5.91038 8.48239 5.6812 8.22559 5.40527C7.7111 4.85248 6.98584 4.11644 6.1416 3.38184C5.29578 2.64586 4.34106 1.92001 3.36719 1.37988C2.51007 0.904525 1.66783 0.589699 0.890625 0.516602L0.561523 0.5H0.456055C-0.0267685 0.0260412 0.433486 -0.498556 0.461914 -0.5H18.4814Z" fill="#E9FFF7" stroke="#075D44"/>
</svg>
