<svg width="28" height="28" viewBox="0 0 28 28" fill="none" xmlns="http://www.w3.org/2000/svg">
<path d="M0.520005 19.6536C0.623207 19.5504 0.623207 19.3831 0.520005 19.2799C0.416804 19.1767 0.249481 19.1767 0.146279 19.2799C0.0430773 19.3831 0.043077 19.5504 0.146279 19.6536C0.24948 19.7568 0.416803 19.7568 0.520005 19.6536Z" fill="#043B2E"/>
<path d="M3.30208 22.4357C3.43218 22.3056 3.43218 22.0947 3.30208 21.9646C3.17198 21.8344 2.96105 21.8344 2.83095 21.9646C2.70085 22.0947 2.70085 22.3056 2.83095 22.4357C2.96105 22.5658 3.17198 22.5658 3.30208 22.4357Z" fill="#043B2E"/>
<path d="M6.03545 25.1691C6.16555 25.039 6.16555 24.828 6.03545 24.6979C5.90535 24.5678 5.69442 24.5678 5.56432 24.6979C5.43422 24.828 5.43422 25.039 5.56432 25.1691C5.69442 25.2992 5.90535 25.2992 6.03545 25.1691Z" fill="#043B2E"/>
<path d="M8.72012 27.8537C8.82332 27.7505 8.82332 27.5832 8.72012 27.48C8.61692 27.3768 8.4496 27.3768 8.34639 27.48C8.24319 27.5832 8.24319 27.7505 8.34639 27.8537C8.4496 27.9569 8.61692 27.9569 8.72012 27.8537Z" fill="#043B2E"/>
<path d="M0.568709 14.2356C0.698809 14.1055 0.698809 13.8945 0.568709 13.7644C0.438609 13.6343 0.227675 13.6343 0.097575 13.7644C-0.032525 13.8945 -0.032525 14.1055 0.097575 14.2356C0.227675 14.3657 0.438609 14.3657 0.568709 14.2356Z" fill="#043B2E"/>
<path d="M3.40048 17.0673C3.58493 16.8829 3.58493 16.5838 3.40048 16.3994C3.21604 16.215 2.91699 16.215 2.73255 16.3994C2.5481 16.5838 2.5481 16.8829 2.73255 17.0673C2.91699 17.2518 3.21604 17.2518 3.40048 17.0673Z" fill="#043B2E"/>
<path d="M6.23226 19.8991C6.47105 19.6603 6.47105 19.2732 6.23226 19.0344C5.99346 18.7956 5.60631 18.7956 5.36752 19.0344C5.12873 19.2732 5.12873 19.6603 5.36752 19.8991C5.60631 20.1379 5.99346 20.1379 6.23226 19.8991Z" fill="#043B2E"/>
<path d="M8.96563 22.6325C9.20442 22.3937 9.20442 22.0065 8.96563 21.7677C8.72684 21.529 8.33968 21.529 8.10089 21.7677C7.8621 22.0065 7.8621 22.3937 8.10089 22.6325C8.33968 22.8713 8.72684 22.8713 8.96563 22.6325Z" fill="#043B2E"/>
<path d="M11.6006 25.2675C11.785 25.083 11.785 24.784 11.6006 24.5995C11.4162 24.4151 11.1171 24.4151 10.9327 24.5995C10.7482 24.784 10.7482 25.083 10.9327 25.2675C11.1171 25.4519 11.4162 25.4519 11.6006 25.2675Z" fill="#043B2E"/>
<path d="M14.2356 27.9024C14.3657 27.7723 14.3657 27.5614 14.2356 27.4313C14.1055 27.3012 13.8945 27.3012 13.7644 27.4313C13.6343 27.5614 13.6343 27.7723 13.7644 27.9024C13.8945 28.0325 14.1055 28.0325 14.2356 27.9024Z" fill="#043B2E"/>
<path d="M0.520005 8.72012C0.623207 8.61692 0.623207 8.4496 0.520005 8.34639C0.416803 8.24319 0.24948 8.24319 0.146279 8.34639C0.043077 8.4496 0.0430773 8.61692 0.146279 8.72012C0.249481 8.82332 0.416804 8.82332 0.520005 8.72012Z" fill="#043B2E"/>
<path d="M3.40048 11.6006C3.58493 11.4162 3.58493 11.1171 3.40048 10.9327C3.21604 10.7482 2.91699 10.7482 2.73255 10.9327C2.5481 11.1171 2.5481 11.4162 2.73255 11.6006C2.91699 11.785 3.21604 11.785 3.40048 11.6006Z" fill="#043B2E"/>
<path d="M6.28096 14.4811C6.54665 14.2154 6.54665 13.7846 6.28096 13.5189C6.01527 13.2532 5.5845 13.2532 5.31881 13.5189C5.05312 13.7846 5.05312 14.2154 5.31881 14.4811C5.5845 14.7468 6.01527 14.7468 6.28096 14.4811Z" fill="#043B2E"/>
<path d="M9.16144 17.3616C9.50837 17.0146 9.50837 16.4521 9.16144 16.1052C8.8145 15.7583 8.25201 15.7583 7.90508 16.1052C7.55815 16.4521 7.55815 17.0146 7.90508 17.3616C8.25201 17.7085 8.8145 17.7085 9.16144 17.3616Z" fill="#043B2E"/>
<path d="M11.8948 20.0949C12.2417 19.748 12.2417 19.1855 11.8948 18.8386C11.5479 18.4916 10.9854 18.4916 10.6385 18.8386C10.2915 19.1855 10.2915 19.748 10.6385 20.0949C10.9854 20.4419 11.5479 20.4419 11.8948 20.0949Z" fill="#043B2E"/>
<path d="M14.4811 22.6812C14.7468 22.4155 14.7468 21.9847 14.4811 21.719C14.2154 21.4534 13.7846 21.4534 13.5189 21.719C13.2532 21.9847 13.2532 22.4155 13.5189 22.6812C13.7846 22.9469 14.2154 22.9469 14.4811 22.6812Z" fill="#043B2E"/>
<path d="M17.0673 25.2675C17.2518 25.083 17.2518 24.784 17.0673 24.5995C16.8829 24.4151 16.5838 24.4151 16.3994 24.5995C16.215 24.784 16.215 25.083 16.3994 25.2675C16.5838 25.4519 16.8829 25.4519 17.0673 25.2675Z" fill="#043B2E"/>
<path d="M19.6536 27.8537C19.7568 27.7505 19.7568 27.5832 19.6536 27.48C19.5504 27.3768 19.3831 27.3768 19.2799 27.48C19.1767 27.5832 19.1767 27.7505 19.2799 27.8537C19.3831 27.9569 19.5504 27.9569 19.6536 27.8537Z" fill="#043B2E"/>
<path d="M3.30208 6.03545C3.43218 5.90535 3.43218 5.69442 3.30208 5.56432C3.17198 5.43422 2.96105 5.43422 2.83095 5.56432C2.70085 5.69442 2.70085 5.90535 2.83095 6.03545C2.96105 6.16555 3.17198 6.16555 3.30208 6.03545Z" fill="#043B2E"/>
<path d="M6.23226 8.96563C6.47105 8.72684 6.47105 8.33968 6.23226 8.10089C5.99346 7.8621 5.60631 7.8621 5.36752 8.10089C5.12873 8.33968 5.12873 8.72684 5.36752 8.96563C5.60631 9.20442 5.99346 9.20442 6.23226 8.96563Z" fill="#043B2E"/>
<path d="M9.16144 11.8948C9.50837 11.5479 9.50837 10.9854 9.16144 10.6385C8.8145 10.2915 8.25201 10.2915 7.90508 10.6385C7.55815 10.9854 7.55815 11.5479 7.90508 11.8948C8.25201 12.2417 8.8145 12.2417 9.16144 11.8948Z" fill="#043B2E"/>
<path d="M12.0916 14.825C12.5472 14.3694 12.5472 13.6306 12.0916 13.175C11.636 12.7194 10.8973 12.7194 10.4416 13.175C9.98602 13.6306 9.98602 14.3694 10.4416 14.825C10.8973 15.2806 11.636 15.2806 12.0916 14.825Z" fill="#043B2E"/>
<path d="M14.825 17.5584C15.2806 17.1027 15.2806 16.364 14.825 15.9084C14.3694 15.4528 13.6306 15.4528 13.175 15.9084C12.7194 16.364 12.7194 17.1027 13.175 17.5584C13.6306 18.014 14.3694 18.014 14.825 17.5584Z" fill="#043B2E"/>
<path d="M17.3616 20.0949C17.7085 19.748 17.7085 19.1855 17.3616 18.8386C17.0146 18.4916 16.4521 18.4916 16.1052 18.8386C15.7583 19.1855 15.7583 19.748 16.1052 20.0949C16.4521 20.4419 17.0146 20.4419 17.3616 20.0949Z" fill="#043B2E"/>
<path d="M19.8991 22.6325C20.1379 22.3937 20.1379 22.0065 19.8991 21.7677C19.6603 21.529 19.2732 21.529 19.0344 21.7677C18.7956 22.0065 18.7956 22.3937 19.0344 22.6325C19.2732 22.8713 19.6603 22.8713 19.8991 22.6325Z" fill="#043B2E"/>
<path d="M22.4357 25.1691C22.5658 25.039 22.5658 24.828 22.4357 24.6979C22.3056 24.5678 22.0947 24.5678 21.9646 24.6979C21.8344 24.828 21.8344 25.039 21.9646 25.1691C22.0947 25.2992 22.3056 25.2992 22.4357 25.1691Z" fill="#043B2E"/>
<path d="M6.03545 3.30208C6.16555 3.17198 6.16555 2.96105 6.03545 2.83095C5.90535 2.70085 5.69442 2.70085 5.56432 2.83095C5.43422 2.96105 5.43422 3.17198 5.56432 3.30208C5.69442 3.43218 5.90535 3.43218 6.03545 3.30208Z" fill="#043B2E"/>
<path d="M8.96563 6.23225C9.20442 5.99346 9.20442 5.60631 8.96563 5.36751C8.72684 5.12872 8.33968 5.12872 8.10089 5.36752C7.8621 5.60631 7.8621 5.99346 8.10089 6.23225C8.33968 6.47105 8.72684 6.47105 8.96563 6.23225Z" fill="#043B2E"/>
<path d="M11.8948 9.16144C12.2417 8.8145 12.2417 8.25201 11.8948 7.90508C11.5479 7.55814 10.9854 7.55814 10.6385 7.90508C10.2915 8.25201 10.2915 8.8145 10.6385 9.16144C10.9854 9.50837 11.5479 9.50837 11.8948 9.16144Z" fill="#043B2E"/>
<path d="M14.825 12.0916C15.2806 11.636 15.2806 10.8973 14.825 10.4416C14.3694 9.98602 13.6306 9.98602 13.175 10.4416C12.7194 10.8973 12.7194 11.636 13.175 12.0916C13.6306 12.5472 14.3694 12.5472 14.825 12.0916Z" fill="#043B2E"/>
<path d="M17.5584 14.825C18.014 14.3694 18.014 13.6306 17.5584 13.175C17.1027 12.7194 16.364 12.7194 15.9084 13.175C15.4528 13.6306 15.4528 14.3694 15.9084 14.825C16.364 15.2806 17.1027 15.2806 17.5584 14.825Z" fill="#043B2E"/>
<path d="M20.0949 17.3616C20.4419 17.0146 20.4419 16.4521 20.0949 16.1052C19.748 15.7583 19.1855 15.7583 18.8386 16.1052C18.4916 16.4521 18.4916 17.0146 18.8386 17.3615C19.1855 17.7085 19.748 17.7085 20.0949 17.3616Z" fill="#043B2E"/>
<path d="M22.6325 19.8991C22.8713 19.6603 22.8713 19.2732 22.6325 19.0344C22.3937 18.7956 22.0065 18.7956 21.7677 19.0344C21.529 19.2732 21.529 19.6603 21.7677 19.8991C22.0065 20.1379 22.3937 20.1379 22.6325 19.8991Z" fill="#043B2E"/>
<path d="M25.1691 22.4357C25.2992 22.3056 25.2992 22.0946 25.1691 21.9645C25.039 21.8344 24.828 21.8344 24.6979 21.9646C24.5678 22.0947 24.5678 22.3056 24.6979 22.4357C24.828 22.5658 25.039 22.5658 25.1691 22.4357Z" fill="#043B2E"/>
<path d="M8.72012 0.520005C8.82332 0.416803 8.82332 0.24948 8.72012 0.146278C8.61692 0.0430763 8.4496 0.0430768 8.34639 0.146279C8.24319 0.24948 8.24319 0.416804 8.34639 0.520006C8.4496 0.623207 8.61692 0.623207 8.72012 0.520005Z" fill="#043B2E"/>
<path d="M11.6006 3.40048C11.785 3.21604 11.785 2.91699 11.6006 2.73255C11.4162 2.5481 11.1171 2.5481 10.9327 2.73255C10.7482 2.91699 10.7482 3.21604 10.9327 3.40048C11.1171 3.58493 11.4162 3.58493 11.6006 3.40048Z" fill="#043B2E"/>
<path d="M14.4811 6.28096C14.7468 6.01527 14.7468 5.5845 14.4811 5.31881C14.2154 5.05312 13.7846 5.05312 13.5189 5.31881C13.2532 5.5845 13.2532 6.01527 13.5189 6.28096C13.7846 6.54665 14.2154 6.54665 14.4811 6.28096Z" fill="#043B2E"/>
<path d="M17.3616 9.16144C17.7085 8.8145 17.7085 8.25201 17.3616 7.90508C17.0146 7.55814 16.4521 7.55815 16.1052 7.90508C15.7583 8.25201 15.7583 8.8145 16.1052 9.16144C16.4521 9.50837 17.0146 9.50837 17.3616 9.16144Z" fill="#043B2E"/>
<path d="M20.0949 11.8948C20.4419 11.5479 20.4419 10.9854 20.0949 10.6385C19.748 10.2915 19.1855 10.2915 18.8386 10.6385C18.4916 10.9854 18.4916 11.5479 18.8386 11.8948C19.1855 12.2417 19.748 12.2417 20.0949 11.8948Z" fill="#043B2E"/>
<path d="M22.6812 14.4811C22.9469 14.2154 22.9469 13.7846 22.6812 13.5189C22.4155 13.2532 21.9847 13.2532 21.719 13.5189C21.4534 13.7846 21.4534 14.2154 21.719 14.4811C21.9847 14.7468 22.4155 14.7468 22.6812 14.4811Z" fill="#043B2E"/>
<path d="M25.2675 17.0673C25.4519 16.8829 25.4519 16.5838 25.2675 16.3994C25.083 16.215 24.784 16.215 24.5995 16.3994C24.4151 16.5838 24.4151 16.8829 24.5995 17.0673C24.784 17.2518 25.083 17.2518 25.2675 17.0673Z" fill="#043B2E"/>
<path d="M27.8537 19.6536C27.9569 19.5504 27.9569 19.3831 27.8537 19.2799C27.7505 19.1767 27.5832 19.1767 27.48 19.2799C27.3768 19.3831 27.3768 19.5504 27.48 19.6536C27.5832 19.7568 27.7505 19.7568 27.8537 19.6536Z" fill="#043B2E"/>
<path d="M14.2356 0.568709C14.3657 0.438609 14.3657 0.227675 14.2356 0.0975752C14.1055 -0.0325248 13.8945 -0.0325252 13.7644 0.0975748C13.6343 0.227675 13.6343 0.438608 13.7644 0.568708C13.8945 0.698808 14.1055 0.698809 14.2356 0.568709Z" fill="#043B2E"/>
<path d="M17.0673 3.40048C17.2518 3.21604 17.2518 2.91699 17.0673 2.73255C16.8829 2.5481 16.5838 2.5481 16.3994 2.73255C16.215 2.91699 16.215 3.21604 16.3994 3.40048C16.5838 3.58493 16.8829 3.58493 17.0673 3.40048Z" fill="#043B2E"/>
<path d="M19.8991 6.23225C20.1379 5.99346 20.1379 5.60631 19.8991 5.36752C19.6603 5.12872 19.2732 5.12873 19.0344 5.36752C18.7956 5.60631 18.7956 5.99346 19.0344 6.23226C19.2732 6.47105 19.6603 6.47105 19.8991 6.23225Z" fill="#043B2E"/>
<path d="M22.6325 8.96563C22.8713 8.72684 22.8713 8.33968 22.6325 8.10089C22.3937 7.8621 22.0065 7.8621 21.7677 8.10089C21.529 8.33968 21.529 8.72684 21.7677 8.96563C22.0065 9.20442 22.3937 9.20442 22.6325 8.96563Z" fill="#043B2E"/>
<path d="M25.2675 11.6006C25.4519 11.4162 25.4519 11.1171 25.2675 10.9327C25.083 10.7482 24.784 10.7482 24.5995 10.9327C24.4151 11.1171 24.4151 11.4162 24.5995 11.6006C24.784 11.785 25.083 11.785 25.2675 11.6006Z" fill="#043B2E"/>
<path d="M27.9024 14.2356C28.0325 14.1055 28.0325 13.8945 27.9024 13.7644C27.7723 13.6343 27.5614 13.6343 27.4313 13.7644C27.3012 13.8945 27.3012 14.1055 27.4313 14.2356C27.5614 14.3657 27.7723 14.3657 27.9024 14.2356Z" fill="#043B2E"/>
<path d="M19.6536 0.520005C19.7568 0.416803 19.7568 0.24948 19.6536 0.146278C19.5504 0.0430762 19.3831 0.043077 19.2799 0.146279C19.1767 0.24948 19.1767 0.416804 19.2799 0.520005C19.3831 0.623207 19.5504 0.623206 19.6536 0.520005Z" fill="#043B2E"/>
<path d="M22.4357 3.30208C22.5658 3.17198 22.5658 2.96105 22.4357 2.83095C22.3056 2.70085 22.0947 2.70085 21.9646 2.83095C21.8344 2.96105 21.8344 3.17198 21.9646 3.30208C22.0947 3.43218 22.3056 3.43218 22.4357 3.30208Z" fill="#043B2E"/>
<path d="M25.1691 6.03545C25.2992 5.90535 25.2992 5.69442 25.1691 5.56432C25.039 5.43422 24.828 5.43422 24.6979 5.56432C24.5678 5.69442 24.5678 5.90535 24.6979 6.03545C24.828 6.16555 25.039 6.16555 25.1691 6.03545Z" fill="#043B2E"/>
<path d="M27.8537 8.72012C27.9569 8.61692 27.9569 8.4496 27.8537 8.34639C27.7505 8.24319 27.5832 8.24319 27.48 8.34639C27.3768 8.4496 27.3768 8.61692 27.48 8.72012C27.5832 8.82332 27.7505 8.82332 27.8537 8.72012Z" fill="#043B2E"/>
</svg>
