<svg width="108" height="108" viewBox="0 0 108 108" fill="none" xmlns="http://www.w3.org/2000/svg">
<path d="M106.884 37.1819C106.406 37.1819 106.018 36.7942 106.018 36.3159C106.018 35.8375 106.406 35.4498 106.884 35.4498C107.363 35.4498 107.75 35.8375 107.75 36.3159C107.75 36.7942 107.363 37.1819 106.884 37.1819Z" fill="#DBC5FF"/>
<path d="M106.884 49.1091C106.314 49.1091 105.853 48.6471 105.853 48.0773C105.853 47.5074 106.314 47.0455 106.884 47.0455C107.454 47.0455 107.916 47.5074 107.916 48.0773C107.916 48.6471 107.454 49.1091 106.884 49.1091Z" fill="#DBC5FF"/>
<path d="M106.884 60.8705C106.314 60.8705 105.853 60.4085 105.853 59.8387C105.853 59.2688 106.314 58.8069 106.884 58.8069C107.454 58.8069 107.916 59.2688 107.916 59.8387C107.916 60.4085 107.454 60.8705 106.884 60.8705Z" fill="#DBC5FF"/>
<path d="M106.884 72.4661C106.406 72.4661 106.018 72.0784 106.018 71.6001C106.018 71.1218 106.406 70.734 106.884 70.734C107.363 70.734 107.75 71.1218 107.75 71.6001C107.75 72.0784 107.363 72.4661 106.884 72.4661Z" fill="#DBC5FF"/>
<path d="M95.1229 13.6591C94.6446 13.6591 94.2569 13.2714 94.2569 12.793C94.2569 12.3147 94.6446 11.927 95.1229 11.927C95.6012 11.927 95.989 12.3147 95.989 12.793C95.989 13.2714 95.6012 13.6591 95.1229 13.6591Z" fill="#DBC5FF"/>
<path d="M95.1229 25.752C94.4616 25.752 93.9254 25.2158 93.9254 24.5545C93.9254 23.8931 94.4616 23.3569 95.1229 23.3569C95.7843 23.3569 96.3205 23.8931 96.3205 24.5545C96.3205 25.2158 95.7843 25.752 95.1229 25.752Z" fill="#DBC5FF"/>
<path d="M95.1229 37.8395C94.2814 37.8395 93.5993 37.1573 93.5993 36.3159C93.5993 35.4744 94.2814 34.7922 95.1229 34.7922C95.9644 34.7922 96.6466 35.4744 96.6466 36.3159C96.6466 37.1573 95.9644 37.8395 95.1229 37.8395Z" fill="#DBC5FF"/>
<path d="M95.1229 49.927C94.1013 49.927 93.2732 49.0989 93.2732 48.0773C93.2732 47.0557 94.1013 46.2275 95.1229 46.2275C96.1445 46.2275 96.9727 47.0557 96.9727 48.0773C96.9727 49.0989 96.1445 49.927 95.1229 49.927Z" fill="#DBC5FF"/>
<path d="M95.1229 61.6884C94.1013 61.6884 93.2732 60.8603 93.2732 59.8387C93.2732 58.8171 94.1013 57.9889 95.1229 57.9889C96.1445 57.9889 96.9727 58.8171 96.9727 59.8387C96.9727 60.8603 96.1445 61.6884 95.1229 61.6884Z" fill="#DBC5FF"/>
<path d="M95.1229 73.1237C94.2814 73.1237 93.5993 72.4416 93.5993 71.6001C93.5993 70.7586 94.2814 70.0764 95.1229 70.0764C95.9644 70.0764 96.6466 70.7586 96.6466 71.6001C96.6466 72.4416 95.9644 73.1237 95.1229 73.1237Z" fill="#DBC5FF"/>
<path d="M95.1229 84.559C94.4616 84.559 93.9254 84.0229 93.9254 83.3615C93.9254 82.7001 94.4616 82.164 95.1229 82.164C95.7843 82.164 96.3205 82.7001 96.3205 83.3615C96.3205 84.0229 95.7843 84.559 95.1229 84.559Z" fill="#DBC5FF"/>
<path d="M95.1229 95.989C94.6446 95.989 94.2569 95.6012 94.2569 95.1229C94.2569 94.6446 94.6446 94.2568 95.1229 94.2568C95.6012 94.2568 95.989 94.6446 95.989 95.1229C95.989 95.6012 95.6012 95.989 95.1229 95.989Z" fill="#DBC5FF"/>
<path d="M83.3615 13.9906C82.7001 13.9906 82.164 13.4544 82.164 12.793C82.164 12.1317 82.7001 11.5955 83.3615 11.5955C84.0229 11.5955 84.559 12.1317 84.559 12.793C84.559 13.4544 84.0229 13.9906 83.3615 13.9906Z" fill="#DBC5FF"/>
<path d="M83.3615 26.2385C82.4315 26.2385 81.6775 25.4845 81.6775 24.5545C81.6775 23.6244 82.4315 22.8704 83.3615 22.8704C84.2916 22.8704 85.0455 23.6244 85.0455 24.5545C85.0455 25.4845 84.2916 26.2385 83.3615 26.2385Z" fill="#DBC5FF"/>
<path d="M83.3615 38.4917C82.1598 38.4917 81.1857 37.5176 81.1857 36.3159C81.1857 35.1142 82.1598 34.14 83.3615 34.14C84.5632 34.14 85.5374 35.1142 85.5374 36.3159C85.5374 37.5176 84.5632 38.4917 83.3615 38.4917Z" fill="#DBC5FF"/>
<path d="M83.3615 50.745C81.8882 50.745 80.6938 49.5506 80.6938 48.0773C80.6938 46.6039 81.8882 45.4096 83.3615 45.4096C84.8349 45.4096 86.0292 46.6039 86.0292 48.0773C86.0292 49.5506 84.8349 50.745 83.3615 50.745Z" fill="#DBC5FF"/>
<path d="M83.3615 62.5064C81.8882 62.5064 80.6938 61.312 80.6938 59.8387C80.6938 58.3653 81.8882 57.171 83.3615 57.171C84.8349 57.171 86.0292 58.3653 86.0292 59.8387C86.0292 61.312 84.8349 62.5064 83.3615 62.5064Z" fill="#DBC5FF"/>
<path d="M83.3615 73.7759C82.1598 73.7759 81.1857 72.8018 81.1857 71.6001C81.1857 70.3984 82.1598 69.4242 83.3615 69.4242C84.5632 69.4242 85.5374 70.3984 85.5374 71.6001C85.5374 72.8018 84.5632 73.7759 83.3615 73.7759Z" fill="#DBC5FF"/>
<path d="M83.3615 85.0455C82.4315 85.0455 81.6775 84.2915 81.6775 83.3615C81.6775 82.4314 82.4315 81.6775 83.3615 81.6775C84.2916 81.6775 85.0455 82.4314 85.0455 83.3615C85.0455 84.2915 84.2916 85.0455 83.3615 85.0455Z" fill="#DBC5FF"/>
<path d="M83.3615 96.3204C82.7001 96.3204 82.164 95.7843 82.164 95.1229C82.164 94.4615 82.7002 93.9254 83.3615 93.9254C84.0229 93.9254 84.5591 94.4615 84.5591 95.1229C84.5591 95.7843 84.0229 96.3204 83.3615 96.3204Z" fill="#DBC5FF"/>
<path d="M71.6001 1.89771C71.1218 1.89771 70.734 1.50995 70.734 1.03164C70.734 0.553324 71.1218 0.165572 71.6001 0.165574C72.0784 0.165572 72.4662 0.553323 72.4662 1.03164C72.4662 1.50996 72.0784 1.89771 71.6001 1.89771Z" fill="#DBC5FF"/>
<path d="M71.6001 14.3167C70.7586 14.3167 70.0765 13.6345 70.0765 12.793C70.0765 11.9516 70.7586 11.2694 71.6001 11.2694C72.4416 11.2694 73.1238 11.9516 73.1238 12.793C73.1238 13.6345 72.4416 14.3167 71.6001 14.3167Z" fill="#DBC5FF"/>
<path d="M71.6001 26.7303C70.3984 26.7303 69.4243 25.7561 69.4243 24.5545C69.4243 23.3528 70.3984 22.3786 71.6001 22.3786C72.8018 22.3786 73.776 23.3528 73.776 24.5545C73.776 25.7561 72.8018 26.7303 71.6001 26.7303Z" fill="#DBC5FF"/>
<path d="M71.6001 39.1493C70.0353 39.1493 68.7667 37.8807 68.7667 36.3159C68.7667 34.751 70.0353 33.4824 71.6001 33.4824C73.165 33.4824 74.4335 34.751 74.4335 36.3159C74.4335 37.8807 73.165 39.1493 71.6001 39.1493Z" fill="#DBC5FF"/>
<path d="M71.6001 51.5629C69.675 51.5629 68.1145 50.0023 68.1145 48.0773C68.1145 46.1522 69.675 44.5916 71.6001 44.5916C73.5252 44.5916 75.0858 46.1522 75.0858 48.0773C75.0858 50.0023 73.5252 51.5629 71.6001 51.5629Z" fill="#DBC5FF"/>
<path d="M71.6001 63.3243C69.675 63.3243 68.1145 61.7638 68.1145 59.8387C68.1145 57.9136 69.675 56.353 71.6001 56.353C73.5252 56.353 75.0858 57.9136 75.0858 59.8387C75.0858 61.7637 73.5252 63.3243 71.6001 63.3243Z" fill="#DBC5FF"/>
<path d="M71.6001 74.4335C70.0353 74.4335 68.7667 73.1649 68.7667 71.6001C68.7667 70.0352 70.0353 68.7667 71.6001 68.7667C73.165 68.7667 74.4335 70.0352 74.4335 71.6001C74.4335 73.1649 73.165 74.4335 71.6001 74.4335Z" fill="#DBC5FF"/>
<path d="M71.6001 85.5373C70.3984 85.5373 69.4243 84.5632 69.4243 83.3615C69.4243 82.1598 70.3984 81.1856 71.6001 81.1856C72.8018 81.1856 73.776 82.1598 73.776 83.3615C73.776 84.5632 72.8018 85.5373 71.6001 85.5373Z" fill="#DBC5FF"/>
<path d="M71.6001 96.6465C70.7586 96.6465 70.0765 95.9644 70.0765 95.1229C70.0765 94.2814 70.7586 93.5992 71.6001 93.5992C72.4416 93.5992 73.1238 94.2814 73.1238 95.1229C73.1238 95.9644 72.4416 96.6465 71.6001 96.6465Z" fill="#DBC5FF"/>
<path d="M71.6001 107.75C71.1218 107.75 70.7341 107.363 70.7341 106.884C70.7341 106.406 71.1218 106.018 71.6001 106.018C72.0784 106.018 72.4662 106.406 72.4662 106.884C72.4662 107.363 72.0784 107.75 71.6001 107.75Z" fill="#DBC5FF"/>
<path d="M59.8387 2.06343C59.2689 2.06343 58.8069 1.60149 58.8069 1.03164C58.8069 0.461794 59.2689 -0.00015704 59.8387 -0.00015704C60.4086 -0.000155691 60.8705 0.461794 60.8705 1.03164C60.8705 1.60148 60.4086 2.06343 59.8387 2.06343Z" fill="#DBC5FF"/>
<path d="M59.8387 14.6428C58.8171 14.6428 57.989 13.8146 57.989 12.793C57.989 11.7715 58.8171 10.9433 59.8387 10.9433C60.8603 10.9433 61.6885 11.7715 61.6885 12.793C61.6885 13.8146 60.8603 14.6428 59.8387 14.6428Z" fill="#DBC5FF"/>
<path d="M59.8387 27.2222C58.3654 27.2222 57.171 26.0278 57.171 24.5545C57.171 23.0811 58.3654 21.8868 59.8387 21.8868C61.312 21.8868 62.5064 23.0811 62.5064 24.5545C62.5064 26.0278 61.312 27.2222 59.8387 27.2222Z" fill="#DBC5FF"/>
<path d="M59.8387 39.8015C57.9136 39.8015 56.3531 38.2409 56.3531 36.3159C56.3531 34.3908 57.9136 32.8302 59.8387 32.8302C61.7638 32.8302 63.3244 34.3908 63.3244 36.3159C63.3244 38.2409 61.7638 39.8015 59.8387 39.8015Z" fill="#DBC5FF"/>
<path d="M59.8387 52.3809C57.4619 52.3809 55.5351 50.4541 55.5351 48.0773C55.5351 45.7005 57.4619 43.7737 59.8387 43.7737C62.2155 43.7737 64.1423 45.7005 64.1423 48.0773C64.1423 50.4541 62.2155 52.3809 59.8387 52.3809Z" fill="#DBC5FF"/>
<path d="M59.8387 64.1423C57.4619 64.1423 55.5351 62.2155 55.5351 59.8387C55.5351 57.4619 57.4619 55.5351 59.8387 55.5351C62.2155 55.5351 64.1423 57.4619 64.1423 59.8387C64.1423 62.2155 62.2155 64.1423 59.8387 64.1423Z" fill="#DBC5FF"/>
<path d="M59.8387 75.0857C57.9136 75.0857 56.3531 73.5252 56.3531 71.6001C56.3531 69.675 57.9136 68.1144 59.8387 68.1144C61.7638 68.1144 63.3244 69.675 63.3244 71.6001C63.3244 73.5252 61.7638 75.0857 59.8387 75.0857Z" fill="#DBC5FF"/>
<path d="M59.8387 86.0292C58.3654 86.0292 57.171 84.8348 57.171 83.3615C57.171 81.8882 58.3654 80.6938 59.8387 80.6938C61.312 80.6938 62.5064 81.8882 62.5064 83.3615C62.5064 84.8348 61.312 86.0292 59.8387 86.0292Z" fill="#DBC5FF"/>
<path d="M59.8387 96.9726C58.8171 96.9726 57.989 96.1445 57.989 95.1229C57.989 94.1013 58.8171 93.2731 59.8387 93.2731C60.8603 93.2731 61.6885 94.1013 61.6885 95.1229C61.6885 96.1445 60.8603 96.9727 59.8387 96.9726Z" fill="#DBC5FF"/>
<path d="M59.8387 107.916C59.2689 107.916 58.8069 107.454 58.8069 106.884C58.8069 106.314 59.2689 105.853 59.8387 105.853C60.4085 105.852 60.8705 106.314 60.8705 106.884C60.8705 107.454 60.4086 107.916 59.8387 107.916Z" fill="#DBC5FF"/>
<path d="M48.0773 2.06343C47.5075 2.06343 47.0455 1.60148 47.0455 1.03164C47.0455 0.461793 47.5075 -0.00015704 48.0773 -0.00015704C48.6471 -0.00015704 49.1091 0.461794 49.1091 1.03164C49.1091 1.60148 48.6471 2.06343 48.0773 2.06343Z" fill="#DBC5FF"/>
<path d="M48.0773 14.6428C47.0557 14.6428 46.2276 13.8146 46.2276 12.793C46.2276 11.7715 47.0557 10.9433 48.0773 10.9433C49.0989 10.9433 49.927 11.7715 49.9271 12.793C49.927 13.8146 49.0989 14.6428 48.0773 14.6428Z" fill="#DBC5FF"/>
<path d="M48.0773 27.2222C46.604 27.2222 45.4096 26.0278 45.4096 24.5545C45.4096 23.0811 46.604 21.8868 48.0773 21.8868C49.5506 21.8868 50.745 23.0811 50.745 24.5545C50.745 26.0278 49.5506 27.2222 48.0773 27.2222Z" fill="#DBC5FF"/>
<path d="M48.0773 39.8015C46.1522 39.8015 44.5917 38.2409 44.5917 36.3159C44.5917 34.3908 46.1522 32.8302 48.0773 32.8302C50.0024 32.8302 51.563 34.3908 51.563 36.3159C51.563 38.2409 50.0024 39.8015 48.0773 39.8015Z" fill="#DBC5FF"/>
<path d="M48.0773 52.3809C45.7005 52.3809 43.7737 50.4541 43.7737 48.0773C43.7737 45.7005 45.7005 43.7737 48.0773 43.7737C50.4541 43.7737 52.3809 45.7005 52.3809 48.0773C52.3809 50.4541 50.4541 52.3809 48.0773 52.3809Z" fill="#DBC5FF"/>
<path d="M48.0773 64.1423C45.7005 64.1423 43.7737 62.2155 43.7737 59.8387C43.7737 57.4619 45.7005 55.5351 48.0773 55.5351C50.4541 55.5351 52.3809 57.4619 52.3809 59.8387C52.3809 62.2155 50.4541 64.1423 48.0773 64.1423Z" fill="#DBC5FF"/>
<path d="M48.0773 75.0857C46.1522 75.0857 44.5916 73.5252 44.5917 71.6001C44.5916 69.675 46.1522 68.1144 48.0773 68.1144C50.0024 68.1144 51.563 69.675 51.563 71.6001C51.563 73.5252 50.0024 75.0857 48.0773 75.0857Z" fill="#DBC5FF"/>
<path d="M48.0773 86.0292C46.604 86.0292 45.4096 84.8348 45.4096 83.3615C45.4096 81.8882 46.604 80.6938 48.0773 80.6938C49.5506 80.6938 50.745 81.8882 50.745 83.3615C50.745 84.8348 49.5506 86.0292 48.0773 86.0292Z" fill="#DBC5FF"/>
<path d="M48.0773 96.9726C47.0557 96.9727 46.2276 96.1445 46.2276 95.1229C46.2276 94.1013 47.0557 93.2731 48.0773 93.2731C49.0989 93.2731 49.9271 94.1013 49.927 95.1229C49.927 96.1445 49.0989 96.9726 48.0773 96.9726Z" fill="#DBC5FF"/>
<path d="M48.0773 107.916C47.5075 107.916 47.0455 107.454 47.0455 106.884C47.0455 106.314 47.5075 105.852 48.0773 105.852C48.6471 105.853 49.1091 106.314 49.1091 106.884C49.1091 107.454 48.6471 107.916 48.0773 107.916Z" fill="#DBC5FF"/>
<path d="M36.3159 1.8977C35.8376 1.89771 35.4498 1.50996 35.4498 1.03164C35.4498 0.553324 35.8376 0.165572 36.3159 0.165573C36.7942 0.165572 37.182 0.553325 37.182 1.03164C37.182 1.50995 36.7942 1.89771 36.3159 1.8977Z" fill="#DBC5FF"/>
<path d="M36.3159 14.3167C35.4744 14.3167 34.7923 13.6345 34.7923 12.793C34.7923 11.9516 35.4744 11.2694 36.3159 11.2694C37.1574 11.2694 37.8395 11.9516 37.8395 12.793C37.8395 13.6345 37.1574 14.3167 36.3159 14.3167Z" fill="#DBC5FF"/>
<path d="M36.3159 26.7303C35.1142 26.7303 34.14 25.7561 34.14 24.5545C34.14 23.3528 35.1142 22.3786 36.3159 22.3786C37.5176 22.3786 38.4918 23.3528 38.4918 24.5545C38.4918 25.7561 37.5176 26.7303 36.3159 26.7303Z" fill="#DBC5FF"/>
<path d="M36.3159 39.1493C34.751 39.1493 33.4825 37.8807 33.4825 36.3159C33.4825 34.751 34.751 33.4824 36.3159 33.4824C37.8808 33.4824 39.1493 34.751 39.1493 36.3159C39.1493 37.8807 37.8808 39.1493 36.3159 39.1493Z" fill="#DBC5FF"/>
<path d="M36.3159 51.5629C34.3908 51.5629 32.8302 50.0023 32.8302 48.0773C32.8302 46.1522 34.3908 44.5916 36.3159 44.5916C38.241 44.5916 39.8016 46.1522 39.8015 48.0773C39.8015 50.0023 38.241 51.5629 36.3159 51.5629Z" fill="#DBC5FF"/>
<path d="M36.3159 63.3243C34.3908 63.3243 32.8302 61.7637 32.8302 59.8387C32.8302 57.9136 34.3908 56.353 36.3159 56.353C38.241 56.353 39.8015 57.9136 39.8016 59.8387C39.8015 61.7638 38.241 63.3243 36.3159 63.3243Z" fill="#DBC5FF"/>
<path d="M36.3159 74.4335C34.751 74.4335 33.4825 73.1649 33.4825 71.6001C33.4825 70.0352 34.751 68.7667 36.3159 68.7667C37.8807 68.7667 39.1493 70.0352 39.1493 71.6001C39.1493 73.1649 37.8808 74.4335 36.3159 74.4335Z" fill="#DBC5FF"/>
<path d="M36.3159 85.5373C35.1142 85.5373 34.14 84.5632 34.14 83.3615C34.14 82.1598 35.1142 81.1856 36.3159 81.1856C37.5176 81.1856 38.4918 82.1598 38.4918 83.3615C38.4918 84.5632 37.5176 85.5373 36.3159 85.5373Z" fill="#DBC5FF"/>
<path d="M36.3159 96.6465C35.4744 96.6465 34.7923 95.9644 34.7923 95.1229C34.7923 94.2814 35.4744 93.5992 36.3159 93.5992C37.1574 93.5992 37.8395 94.2814 37.8395 95.1229C37.8395 95.9644 37.1574 96.6465 36.3159 96.6465Z" fill="#DBC5FF"/>
<path d="M36.3159 107.75C35.8376 107.75 35.4498 107.363 35.4498 106.884C35.4498 106.406 35.8376 106.018 36.3159 106.018C36.7942 106.018 37.182 106.406 37.182 106.884C37.182 107.363 36.7942 107.75 36.3159 107.75Z" fill="#DBC5FF"/>
<path d="M24.5545 13.9906C23.8931 13.9906 23.357 13.4544 23.357 12.793C23.357 12.1317 23.8931 11.5955 24.5545 11.5955C25.2159 11.5955 25.752 12.1317 25.752 12.793C25.752 13.4544 25.2159 13.9906 24.5545 13.9906Z" fill="#DBC5FF"/>
<path d="M24.5545 26.2385C23.6244 26.2385 22.8705 25.4845 22.8705 24.5545C22.8705 23.6244 23.6244 22.8704 24.5545 22.8704C25.4846 22.8704 26.2385 23.6244 26.2385 24.5545C26.2385 25.4845 25.4845 26.2385 24.5545 26.2385Z" fill="#DBC5FF"/>
<path d="M24.5545 38.4917C23.3528 38.4917 22.3786 37.5176 22.3786 36.3159C22.3786 35.1142 23.3528 34.14 24.5545 34.14C25.7562 34.14 26.7304 35.1142 26.7304 36.3159C26.7304 37.5176 25.7562 38.4917 24.5545 38.4917Z" fill="#DBC5FF"/>
<path d="M24.5545 50.745C23.0812 50.745 21.8868 49.5506 21.8868 48.0773C21.8868 46.6039 23.0812 45.4096 24.5545 45.4096C26.0278 45.4096 27.2222 46.6039 27.2222 48.0773C27.2222 49.5506 26.0278 50.745 24.5545 50.745Z" fill="#DBC5FF"/>
<path d="M24.5545 62.5064C23.0812 62.5064 21.8868 61.312 21.8868 59.8387C21.8868 58.3653 23.0812 57.171 24.5545 57.171C26.0278 57.171 27.2222 58.3653 27.2222 59.8387C27.2222 61.312 26.0278 62.5064 24.5545 62.5064Z" fill="#DBC5FF"/>
<path d="M24.5545 73.7759C23.3528 73.7759 22.3786 72.8018 22.3786 71.6001C22.3786 70.3984 23.3528 69.4242 24.5545 69.4242C25.7562 69.4242 26.7304 70.3984 26.7304 71.6001C26.7304 72.8018 25.7562 73.7759 24.5545 73.7759Z" fill="#DBC5FF"/>
<path d="M24.5545 85.0455C23.6244 85.0455 22.8705 84.2915 22.8705 83.3615C22.8705 82.4314 23.6244 81.6775 24.5545 81.6775C25.4845 81.6775 26.2385 82.4314 26.2385 83.3615C26.2385 84.2915 25.4846 85.0455 24.5545 85.0455Z" fill="#DBC5FF"/>
<path d="M24.5545 96.3204C23.8931 96.3204 23.357 95.7843 23.357 95.1229C23.357 94.4615 23.8931 93.9254 24.5545 93.9254C25.2159 93.9254 25.752 94.4615 25.752 95.1229C25.752 95.7843 25.2159 96.3204 24.5545 96.3204Z" fill="#DBC5FF"/>
<path d="M12.7931 13.6591C12.3148 13.6591 11.927 13.2714 11.927 12.793C11.927 12.3147 12.3148 11.927 12.7931 11.927C13.2714 11.927 13.6591 12.3147 13.6592 12.793C13.6592 13.2714 13.2714 13.6591 12.7931 13.6591Z" fill="#DBC5FF"/>
<path d="M12.7931 25.752C12.1317 25.752 11.5955 25.2158 11.5956 24.5545C11.5955 23.8931 12.1317 23.3569 12.7931 23.3569C13.4545 23.3569 13.9906 23.8931 13.9906 24.5545C13.9906 25.2158 13.4544 25.752 12.7931 25.752Z" fill="#DBC5FF"/>
<path d="M12.7931 37.8395C11.9516 37.8395 11.2694 37.1573 11.2694 36.3159C11.2694 35.4744 11.9516 34.7922 12.7931 34.7922C13.6346 34.7922 14.3167 35.4744 14.3167 36.3159C14.3167 37.1573 13.6346 37.8395 12.7931 37.8395Z" fill="#DBC5FF"/>
<path d="M12.7931 49.927C11.7715 49.927 10.9433 49.0989 10.9433 48.0773C10.9433 47.0557 11.7715 46.2275 12.7931 46.2275C13.8147 46.2275 14.6428 47.0557 14.6428 48.0773C14.6428 49.0989 13.8147 49.927 12.7931 49.927Z" fill="#DBC5FF"/>
<path d="M12.7931 61.6884C11.7715 61.6884 10.9433 60.8603 10.9433 59.8387C10.9433 58.8171 11.7715 57.9889 12.7931 57.9889C13.8147 57.9889 14.6428 58.8171 14.6428 59.8387C14.6428 60.8603 13.8147 61.6884 12.7931 61.6884Z" fill="#DBC5FF"/>
<path d="M12.7931 73.1237C11.9516 73.1237 11.2694 72.4416 11.2694 71.6001C11.2694 70.7586 11.9516 70.0764 12.7931 70.0764C13.6346 70.0764 14.3167 70.7586 14.3167 71.6001C14.3167 72.4416 13.6346 73.1237 12.7931 73.1237Z" fill="#DBC5FF"/>
<path d="M12.7931 84.559C12.1317 84.559 11.5955 84.0229 11.5955 83.3615C11.5955 82.7001 12.1317 82.164 12.7931 82.164C13.4544 82.164 13.9906 82.7001 13.9906 83.3615C13.9906 84.0229 13.4545 84.559 12.7931 84.559Z" fill="#DBC5FF"/>
<path d="M12.7931 95.989C12.3148 95.989 11.927 95.6012 11.927 95.1229C11.927 94.6446 12.3148 94.2568 12.7931 94.2568C13.2714 94.2568 13.6592 94.6446 13.6592 95.1229C13.6592 95.6012 13.2714 95.989 12.7931 95.989Z" fill="#DBC5FF"/>
<path d="M1.03168 37.1819C0.553365 37.1819 0.165614 36.7942 0.165613 36.3159C0.165612 35.8375 0.553366 35.4498 1.03168 35.4498C1.51 35.4498 1.89774 35.8375 1.89774 36.3159C1.89774 36.7942 1.50999 37.1819 1.03168 37.1819Z" fill="#DBC5FF"/>
<path d="M1.03168 49.1091C0.461834 49.1091 -0.000110365 48.6471 -0.000111714 48.0773C-0.000113063 47.5074 0.46183 47.0455 1.03167 47.0455C1.60152 47.0455 2.06347 47.5074 2.06347 48.0773C2.06347 48.6471 1.60152 49.1091 1.03168 49.1091Z" fill="#DBC5FF"/>
<path d="M1.03168 60.8705C0.461831 60.8705 -0.000111714 60.4085 -0.000114411 59.8387C-0.000110365 59.2688 0.461833 58.8069 1.03168 58.8069C1.60152 58.8069 2.06347 59.2688 2.06347 59.8387C2.06347 60.4085 1.60152 60.8705 1.03168 60.8705Z" fill="#DBC5FF"/>
<path d="M1.03168 72.4661C0.553366 72.4661 0.165615 72.0784 0.165615 71.6001C0.165615 71.1218 0.553366 70.734 1.03168 70.734C1.50999 70.734 1.89774 71.1218 1.89774 71.6001C1.89775 72.0784 1.51 72.4661 1.03168 72.4661Z" fill="#DBC5FF"/>
</svg>
